<svg width="23" height="22" viewBox="0 0 23 22" fill="none" xmlns="http://www.w3.org/2000/svg">
<path d="M8.10001 3.52261C7.60001 2.02261 6.20001 0.922607 4.50001 0.922607C2.40001 0.922607 0.700012 2.62261 0.700012 4.82261C0.700012 6.42261 1.60001 7.72261 3.00001 8.32261C3.80001 6.02261 5.70001 4.22261 8.10001 3.52261Z" fill="#C6F0DD"/>
<path fill-rule="evenodd" clip-rule="evenodd" d="M2.80001 8.82251C2.80001 8.92251 2.90001 8.92251 3.00001 8.92251H3.20001C3.40001 8.82251 3.50001 8.72251 3.50001 8.52251C4.30001 6.42251 6.10001 4.72251 8.30001 4.12251C8.35001 4.07251 8.42501 4.02251 8.50001 3.97251C8.57501 3.92251 8.65001 3.87251 8.70001 3.82251C8.70001 3.75166 8.71256 3.69336 8.72432 3.63872C8.74576 3.53911 8.76458 3.45166 8.70001 3.32251C8.10001 1.52251 6.40001 0.32251 4.50001 0.32251C2.10001 0.32251 0.100006 2.32251 0.100006 4.82251C0.100006 6.52251 1.10001 8.22251 2.80001 8.82251ZM1.30001 4.82251C1.30001 3.02251 2.70001 1.52251 4.50001 1.52251C5.70001 1.52251 6.70001 2.12251 7.30001 3.22251C5.30001 4.02251 3.60001 5.52251 2.70001 7.52251C1.80001 6.92251 1.30001 5.92251 1.30001 4.82251Z" fill="#40CD8B"/>
<path d="M17.7 0.922607C16 0.922607 14.6 2.02261 14.1 3.52261C16.5 4.22261 18.4 6.02261 19.2 8.32261C20.5 7.72261 21.5 6.32261 21.5 4.82261C21.5 2.62261 19.8 0.922607 17.7 0.922607Z" fill="#C6F0DD"/>
<path fill-rule="evenodd" clip-rule="evenodd" d="M19 8.92251H19.2H19.6C21.2 8.22251 22.2 6.62251 22.2 4.82251C22.2 2.32251 20.2 0.32251 17.8 0.32251C15.9 0.32251 14.2 1.52251 13.6 3.32251C13.5 3.52251 13.5 3.62251 13.6 3.82251C13.6236 3.84612 13.6472 3.8753 13.6721 3.9061C13.7528 4.00579 13.8472 4.12251 14 4.12251C16.1 4.72251 17.9 6.32251 18.7 8.52251C18.7 8.72251 18.8 8.82251 19 8.92251ZM19.5 7.42251C18.6 5.42251 16.9 3.92251 14.9 3.12251C15.5 2.12251 16.6 1.52251 17.7 1.42251C19.5 1.42251 20.9 2.92251 20.9 4.72251C20.9 5.82251 20.3 6.82251 19.5 7.42251Z" fill="#40CD8B"/>
<path d="M10.2375 12.45C10.0375 12.45 9.9375 12.45 9.7375 12.35L7.3375 11.15C7.0375 10.95 6.9375 10.65 7.0375 10.35C7.1375 10.05 7.5375 9.95 7.8375 10.05L10.1375 11.25L13.2375 8.15C13.4375 7.95 13.8375 7.95 14.1375 8.15C14.3375 8.35 14.3375 8.75 14.1375 9.05L10.9375 12.25C10.7375 12.25 10.4375 12.45 10.2375 12.45Z" fill="#40CD8B"/>
<path fill-rule="evenodd" clip-rule="evenodd" d="M11.1 21.0225C15.9601 21.0225 19.9 16.993 19.9 12.0225C19.9 7.0519 15.9601 3.02246 11.1 3.02246C6.23988 3.02246 2.29999 7.0519 2.29999 12.0225C2.29999 16.993 6.23988 21.0225 11.1 21.0225Z" stroke="#40CD8B" stroke-width="1.1"/>
<path d="M15.5 15.5226C15.4 15.5226 15.3 15.5226 15.2 15.4226L9.69999 12.3226C9.39999 12.1226 9.29999 11.8226 9.49999 11.5226C9.69999 11.2226 9.99999 11.1226 10.3 11.3226L15.8 14.4226C16.1 14.6226 16.2 14.9226 16 15.2226C16 15.4226 15.7 15.5226 15.5 15.5226Z" fill="#40CD8B"/>
<path d="M11.1 5.82251C10.8 5.82251 10.5 5.52251 10.5 5.22251V2.92251C10.5 2.62251 10.8 2.32251 11.1 2.32251C11.4 2.32251 11.7 2.62251 11.7 2.92251V5.12251C11.7 5.52251 11.4 5.82251 11.1 5.82251Z" fill="#40CD8B"/>
<path d="M11.1 21.4226C10.8 21.4226 10.5 21.1226 10.5 20.8226V18.7226C10.5 18.4226 10.8 18.1226 11.1 18.1226C11.4 18.1226 11.7 18.4226 11.7 18.7226V20.8226C11.7 21.2226 11.4 21.4226 11.1 21.4226Z" fill="#40CD8B"/>
<path d="M19.8 12.6226H17.6C17.3 12.6226 17 12.3226 17 12.0226C17 11.7226 17.3 11.4226 17.6 11.4226H19.8C20.1 11.4226 20.4 11.7226 20.4 12.0226C20.4 12.3226 20.2 12.6226 19.8 12.6226Z" fill="#40CD8B"/>
<path d="M4.59999 12.6226H2.39999C2.09999 12.6226 1.79999 12.3226 1.79999 12.0226C1.79999 11.7226 2.09999 11.4226 2.39999 11.4226H4.59999C4.89999 11.4226 5.19999 11.7226 5.19999 12.0226C5.19999 12.3226 4.89999 12.6226 4.59999 12.6226Z" fill="#40CD8B"/>
<path d="M13.1 3.62241C12.8 3.62241 12.5 3.32241 12.5 3.02241V1.72241C12.5 1.52241 12.4 1.42241 12.2 1.42241H10C9.8 1.42241 9.7 1.52241 9.7 1.72241V3.02241C9.7 3.32241 9.4 3.62241 9.1 3.62241C8.8 3.62241 8.5 3.32241 8.5 3.02241V1.72241C8.5 0.922412 9.2 0.222412 10 0.222412H12.1C12.9 0.222412 13.6 0.922412 13.6 1.72241V3.02241C13.7 3.32241 13.4 3.62241 13.1 3.62241Z" fill="#40CD8B"/>
</svg>
