<svg width="24" height="23" viewBox="0 0 24 23" fill="none" xmlns="http://www.w3.org/2000/svg">
<path d="M8.36228 3.5362C7.82107 1.95357 6.3457 0.817627 4.60929 0.817627C2.41413 0.817627 0.634644 2.63228 0.634644 4.87082C0.634644 6.52711 1.60936 7.95037 3.00522 8.5792C3.89687 6.14272 5.88731 4.25248 8.36228 3.5362Z" fill="#C6F0DD"/>
<path fill-rule="evenodd" clip-rule="evenodd" d="M2.74886 9.17128C2.83053 9.20801 2.91786 9.22648 3.00532 9.22648C3.0891 9.22648 3.17297 9.20957 3.25176 9.17567C3.41285 9.10641 3.53877 8.9726 3.5999 8.80553C4.42462 6.5517 6.26979 4.81459 8.53556 4.15883C8.70375 4.11013 8.84476 3.99286 8.92544 3.83468C9.00603 3.67641 9.0191 3.49138 8.96155 3.32303C8.31679 1.43737 6.56771 0.17041 4.6093 0.17041C2.06771 0.17041 0 2.27903 0 4.87085C0 6.73104 1.07898 8.41903 2.74886 9.17128ZM1.26936 4.87085C1.26936 2.99284 2.76764 1.4649 4.6093 1.4649C5.8088 1.4649 6.89991 2.12071 7.49099 3.14886C5.38811 3.96111 3.66032 5.58786 2.69666 7.66263C1.81354 7.03293 1.26936 5.99534 1.26936 4.87085Z" fill="#40CD8B"/>
<path d="M18.3907 0.817627C16.6542 0.817627 15.1788 1.95357 14.6377 3.53616C17.1127 4.25253 19.1031 6.14277 19.9948 8.5792C21.3907 7.95033 22.3653 6.52707 22.3653 4.87082C22.3653 2.63228 20.5858 0.817627 18.3907 0.817627Z" fill="#C6F0DD"/>
<path fill-rule="evenodd" clip-rule="evenodd" d="M19.7481 9.17567C19.827 9.20957 19.9109 9.22648 19.9947 9.22648C20.082 9.22648 20.1695 9.20806 20.251 9.17128C21.9209 8.41899 22.9999 6.73104 22.9999 4.8708C22.9999 2.27898 20.9322 0.17041 18.3906 0.17041C16.4322 0.17041 14.6831 1.43732 14.0383 3.32303C13.9807 3.49138 13.9938 3.6765 14.0745 3.83468C14.1551 3.99286 14.2962 4.11018 14.4643 4.15883C16.7302 4.81464 18.5753 6.55174 19.4 8.80553C19.4611 8.97251 19.5871 9.10641 19.7481 9.17567ZM20.3032 7.66263C19.3396 5.58781 17.6117 3.96102 15.5089 3.14886C16.1001 2.12071 17.1911 1.4649 18.3906 1.4649C20.2323 1.4649 21.7305 2.99284 21.7305 4.87085C21.7305 5.99529 21.1864 7.03293 20.3032 7.66263Z" fill="#40CD8B"/>
<path d="M11.0521 13.228C10.8841 13.228 10.7146 13.1889 10.5569 13.1085L8.02225 11.8162C7.70869 11.6563 7.58165 11.2675 7.73834 10.9478C7.89503 10.628 8.27632 10.4985 8.58983 10.6584L11.0197 11.8973L14.245 8.60825C14.493 8.35552 14.8948 8.35552 15.1426 8.60825C15.3905 8.86098 15.3905 9.27084 15.1426 9.52357L11.8345 12.8971C11.6218 13.114 11.339 13.228 11.0521 13.228Z" fill="#40CD8B"/>
<path fill-rule="evenodd" clip-rule="evenodd" d="M11.5 21.8127C16.581 21.8127 20.7 17.6123 20.7 12.4309C20.7 7.24945 16.581 3.04907 11.5 3.04907C6.41897 3.04907 2.29999 7.24945 2.29999 12.4309C2.29999 17.6123 6.41897 21.8127 11.5 21.8127Z" stroke="#40CD8B" stroke-width="1.1"/>
<path d="M16.1217 16.1429C16.0192 16.1429 15.9152 16.1175 15.8188 16.0641L10.0663 12.8724C9.75839 12.7015 9.64455 12.3085 9.81211 11.9945C9.97963 11.6805 10.3649 11.5645 10.673 11.7353L16.4255 14.927C16.7334 15.0978 16.8472 15.4909 16.6797 15.8048C16.5646 16.0206 16.3467 16.1429 16.1217 16.1429Z" fill="#40CD8B"/>
<path d="M11.5 5.92459C11.1495 5.92459 10.8653 5.63485 10.8653 5.27735V2.95755C10.8653 2.60009 11.1495 2.3103 11.5 2.3103C11.8504 2.3103 12.1347 2.60005 12.1347 2.95755V5.27735C12.1347 5.6348 11.8505 5.92459 11.5 5.92459Z" fill="#40CD8B"/>
<path d="M11.5 22.3088C11.1495 22.3088 10.8653 22.0283 10.8653 21.6821V19.4356C10.8653 19.0895 11.1495 18.8088 11.5 18.8088C11.8504 18.8088 12.1347 19.0894 12.1347 19.4356V21.6821C12.1347 22.0283 11.8505 22.3088 11.5 22.3088Z" fill="#40CD8B"/>
<path d="M20.6096 13.014H18.3347C17.9842 13.014 17.7 12.7242 17.7 12.3667C17.7 12.0092 17.9842 11.7195 18.3347 11.7195H20.6096C20.96 11.7195 21.2443 12.0092 21.2443 12.3667C21.2443 12.7242 20.9601 13.014 20.6096 13.014Z" fill="#40CD8B"/>
<path d="M4.68954 13.014H2.4147C2.06422 13.014 1.78 12.7242 1.78 12.3667C1.78 12.0092 2.06422 11.7195 2.4147 11.7195H4.68954C5.04002 11.7195 5.32424 12.0092 5.32424 12.3667C5.32424 12.7242 5.04007 13.014 4.68954 13.014Z" fill="#40CD8B"/>
<path d="M13.5416 3.60474C13.1912 3.60474 12.9069 3.315 12.9069 2.9575V1.61995C12.9069 1.45343 12.774 1.31788 12.6107 1.31788H10.3892C10.2259 1.31788 10.0929 1.45334 10.0929 1.61995V2.95755C10.0929 3.315 9.80873 3.60479 9.45825 3.60479C9.10777 3.60479 8.82355 3.31504 8.82355 2.95755V1.61995C8.82355 0.739626 9.52581 0.0234375 10.3891 0.0234375H12.6107C13.474 0.0234375 14.1763 0.73958 14.1763 1.61995V2.95755C14.1763 3.315 13.8922 3.60474 13.5416 3.60474Z" fill="#40CD8B"/>
</svg>
