<svg width="14" height="23" viewBox="0 0 14 23" fill="none" xmlns="http://www.w3.org/2000/svg">
<path d="M7.33318 21.5988C7.90379 21.5988 8.36642 21.1518 8.36642 20.6003V13.3788H10.9199C11.4541 13.3788 11.9003 12.9852 11.9488 12.471L12.1899 9.91442C12.245 9.32958 11.7686 8.82526 11.1609 8.82526H8.54781V6.27885C8.54781 5.3911 9.16003 5.1854 9.59019 5.1854H11.1996C11.7702 5.1854 12.2328 4.7384 12.2328 4.18689V2.27842C12.2328 1.72853 11.7728 1.2821 11.2038 1.27991L8.59312 1.26978C4.55355 1.26978 3.63559 4.1787 3.63559 6.04177V8.82534H2.33261C1.76201 8.82534 1.29938 9.27234 1.29938 9.82385V12.3804C1.29938 12.9318 1.76192 13.3789 2.33261 13.3789H3.65455V20.8185C3.65455 21.2495 4.01617 21.599 4.46227 21.599H7.33326V21.5988H7.33318Z" fill="#FFE2A6"/>
<path fill-rule="evenodd" clip-rule="evenodd" d="M4.46217 22.809H7.33316C8.59327 22.809 9.61862 21.8181 9.61837 20.6V14.5887H10.9197C12.1091 14.5887 13.0876 13.7253 13.1956 12.5805L13.4368 10.0241C13.4948 9.40759 13.2805 8.79178 12.8485 8.33457C12.4165 7.87735 11.8014 7.61514 11.1607 7.61514H9.79993V6.39545H11.1993C12.4594 6.39545 13.4848 5.40456 13.4848 4.18681V2.27834C13.4848 1.06554 12.4637 0.0746513 11.2086 0.0697054L8.59285 0.0595703C4.00935 0.0595703 2.38311 3.28212 2.38311 6.04169V7.61514H2.33251C1.07241 7.61514 0.0470581 8.60602 0.0470581 9.82377V12.3802C0.0470581 13.598 1.07241 14.5889 2.33251 14.5889H2.40224V20.8183C2.40224 21.916 3.3264 22.809 4.46217 22.809ZM7.11401 20.3887H4.90675H4.90667V13.3789C4.90667 12.7106 4.34605 12.1688 3.65445 12.1688H2.55149V10.0356H3.63532C4.32692 10.0356 4.88754 9.49378 4.88754 8.82543V6.04185C4.88754 4.71157 5.36888 2.47999 8.58781 2.47999L10.9803 2.48931V3.97535H9.59001C8.48487 3.97535 7.29541 4.69624 7.29541 6.27893V8.82543C7.29541 9.49378 7.85603 10.0356 8.54763 10.0356H10.9208L10.7196 12.1688H8.36623C7.67464 12.1688 7.11401 12.7106 7.11401 13.3789V20.3887Z" fill="#FFAA2F"/>
</svg>
