<svg width="14" height="23" viewBox="0 0 14 23" fill="none" xmlns="http://www.w3.org/2000/svg">
<path d="M7.30005 21.6C7.90005 21.6 8.30005 21.2 8.30005 20.6V13.4H10.9C11.4 13.4 11.9 13 11.9 12.5L12.1 9.90005C12.2 9.30005 11.7 8.80005 11.1 8.80005H8.50005V6.30005C8.50005 5.40005 9.10005 5.20005 9.50005 5.20005H11.1C11.7 5.20005 12.1 4.80005 12.1 4.20005V2.30005C12.1 1.80005 11.6 1.30005 11.1 1.30005H8.50005C4.50005 1.30005 3.50005 4.20005 3.50005 6.10005V8.90005H2.30005C1.70005 8.90005 1.30005 9.30005 1.30005 9.90005V12.5C1.30005 13.1 1.80005 13.5 2.30005 13.5H3.60005V20.9C3.60005 21.3 4.00005 21.7 4.40005 21.7L7.30005 21.6V21.6V21.6Z" fill="#DBFAEB"/>
<path fill-rule="evenodd" clip-rule="evenodd" d="M13 4.2001C13 5.1001 12.2 5.9001 11.2 5.9001H9.29998V8.0001H11.3C11.8 8.0001 12.3 8.2001 12.6 8.6001C13 9.0001 13.1 9.4001 13.1 9.9001L12.9 12.5001C12.8 13.4001 12 14.1001 11.1 14.1001H9.29998V20.6001C9.29998 21.5001 8.49998 22.3001 7.49998 22.3001H4.59998C3.69998 22.3001 2.99998 21.6001 2.99998 20.8001V14.6001L2.89998 14.1001H2.39998C1.39998 14.1001 0.599976 13.3001 0.599976 12.4001V9.8001C0.599976 8.9001 1.39998 8.1001 2.39998 8.1001H2.89998V6.0001C2.89998 3.4001 4.39998 0.600098 8.59998 0.600098H11.2C12.2 0.600098 13 1.4001 13 2.3001V4.2001ZM11.8 9.5001H8.79998C8.39998 9.5001 8.09998 9.2001 8.09998 8.8001V6.3001C8.09998 4.9001 9.19998 4.5001 9.89998 4.5001H11.5V2.0001H8.59998C4.79998 2.0001 4.39998 4.8001 4.39998 6.0001V8.8001C4.39998 9.2001 3.99998 9.5001 3.59998 9.5001H1.99998V12.6001H3.59998C4.09998 12.6001 4.39998 12.9001 4.39998 13.3001V21.0001H7.89998V13.3001C7.89998 12.9001 8.29998 12.6001 8.69998 12.6001H11.5L11.8 9.5001Z" fill="#42CD8C"/>
</svg>
