<svg width="155" height="33" viewBox="0 0 155 33" fill="none" xmlns="http://www.w3.org/2000/svg">
<path d="M20.4 7.50004C20 8.30004 19.5 9.20004 18.9 10.1C18.2 11.4 17.4 12.8 16.5 14.3C17.2 14.7 17.6 15.2 17.8 15.9C17.9 16.2 17.8 16.4 17.7 16.5C17.6 16.6 17.4 16.7 17.1 16.6C16.6 16.5 16 16.5 15.3 16.5C14 18.9 12.8 21.4 11.7 23.9C11.6 24.2 11.3 24.3 11.2 24.3C11.1 24.3 10.9 24.3 10.7 24C10.2 23.3 9.79999 22.2 10.6 19.9C10.8 19.2 11.3 18.1 11.9 16.9C11.3 17 10.8 17.1 10.2 17.1C8.39999 17.3 6.69999 17.6 5.49999 17.6C4.39999 19.9 3.29999 22.2 2.29999 24.4C2.19999 24.8 1.99999 25 1.79999 25C1.79999 25 1.79999 25 1.69999 25C1.59999 25 1.39999 25 1.19999 24.7C0.499989 23.7 0.399989 22.5 0.999989 20.6C1.19999 20 1.59999 19 2.09999 17.8L2.39999 17.1C1.69999 16.7 1.49999 16.3 1.29999 16C1.19999 15.8 1.09999 15.5 1.19999 15.3C1.29999 15.1 1.69999 15.1 1.99999 15.1C2.19999 15.1 2.39999 15.1 2.59999 15.1C2.89999 15.1 3.09999 15.2 3.29999 15.2C5.49999 10.7 8.79999 4.50004 10.3 2.30004C10.6 2.00004 10.8 1.90004 11 1.90004C11.2 1.90004 11.4 2.00004 11.6 2.30004C12.3 3.50004 11.9 5.50004 10.7 7.80004C10.2 8.80004 9.49999 10 8.79999 11.3C8.19999 12.4 7.49999 13.6 6.79999 14.9C7.59999 14.8 8.39999 14.6 9.19999 14.5C10.6 14.2 11.9 14 13.2 13.9C15.4 9.50004 18.6 3.80004 20 1.80004C20.2 1.50004 20.5 1.30004 20.7 1.40004C20.9 1.40004 21.1 1.50004 21.3 1.90004C22.1 3.20004 21.8 5.10004 20.4 7.50004Z" fill="url(#paint0_linear)"/>
<path fill-rule="evenodd" clip-rule="evenodd" d="M55.8 10.9C55.3 10.2 54.6 9.80005 53.6 9.80005C52.9 9.80005 52.2 10.1 51.4 10.6C51.8 10 52.2 9.30005 52.5 8.70005C52.8514 8.11439 53.1685 7.56304 53.4312 7.10624L53.4314 7.10594L53.4316 7.10551C53.6173 6.78265 53.7758 6.50706 53.9 6.30005C55.2 3.90005 55.5 2.10005 54.8 0.800049C54.7768 0.776869 54.7483 0.737572 54.7143 0.690873L54.7143 0.690796C54.6018 0.536027 54.4304 0.300049 54.2 0.300049C53.9 0.300049 53.6 0.600049 53.5 0.700049C51.1 4.10005 44.7 16.1 43.3 19.7C42.1 22 40.8 23.3 39.7 23.3C39.4 23.3 39.2 23.2 39 22.9C38.6 22.4 38.6 21.4 39 20.2C39.5 18.7 41 16.4 43 14.1C44.2 12.7 43.2 10.9 42.5 10.2C42 9.70005 41.6 9.90005 41.1 10.2C39.8 11.1 38.7 11.6 37.6 11.8C38.3 9.50005 38.4 8.20005 37.9 7.70005C37.8 7.50005 37.6 7.40005 37.2 7.40005C36.1 7.50005 34.2 9.80005 34 11.6C33.9 12.6 34.2 13.4 35 13.8C33.3 18.8 30.3 23 28.1 23.2C27.9 23.2 27.7 23.2001 27.6 23C27.4 22.7001 27.3 21.8 28 20.3C28.4 19.4 29.1 18.1 29.8 17C30.0367 16.5662 30.2733 16.1478 30.4977 15.7512C30.8422 15.1423 31.1578 14.5845 31.4 14.1C32.2 12.2 31.9 10.6 31.3 9.90005C31.1 9.70005 30.9 9.60005 30.7 9.60005C30.5 9.60005 30.2 9.80005 30 10.1C29.955 10.1675 29.905 10.24 29.85 10.3197C29.6601 10.595 29.4101 10.9574 29.1 11.5C28.9 10.5 28.1 9.60005 26.8 9.60005C24.5 9.60005 21.7 11.8 19.1 15.5C17.6 18.1 17 21.2001 18 23C18.5 24 19.5 24.6 20.7 24.6C22.5 24.6 24 23.2 25 22.1C25.1 22.8 25.4 23.4 25.9 23.9C26.5 24.4 27.3 24.7 28.3 24.6C32 24.4 35.3 19 37.1 14C38 14 39.1 13.7 40.1 13.2C38.2 15.5 37 17.4 36.5 19C36 20.7001 36.1 22.3 36.9 23.4C37.5 24.2 38.5 24.7 39.7 24.8H39.8C40.9 24.8 42 24.3 43 23.5C43.1 23.8 43.3 24.1 43.5 24.4C43.7 24.7 43.9 24.7 44 24.7C44.1 24.7 44.3 24.6 44.5 24.2C44.6 24.0001 44.675 23.8001 44.75 23.6001L44.75 23.6L44.75 23.6C44.825 23.4 44.9 23.2 45 23C45.05 22.9001 45.1 22.7751 45.15 22.6501L45.15 22.65L45.15 22.65C45.2 22.525 45.25 22.4 45.3 22.3C46.1 23.7 47.3 24.5 49 24.5C51.2 24.5 53.5 22.3 55.2 18.6C56.6 15.5 56.8 12.5 55.8 10.9ZM21 23C20.8 23 20.7 22.9 20.6 22.7C20.2 21.9 20.6 19.6 22.2 17.2C24.3 13.9 26.7 12 27.6 12C27.7 12 27.8 12 27.8 12.2C28.1 12.7 27.8 14.5 25.9 17.9C24 21.1 22.3 23 21 23ZM46.2 20.4C46.3 21.3 46.7 22.3 47.5 22.5C48.8 22.8 50.4 21.1 52.3 17.7C53.4 15.5 53.7 14 53.7 13C53.7 12.5 53.6 12.2 53.5 12C53.4 11.9 53.3 11.8 53.2 11.8C52.5 11.7 51.8 12.1 50.8 13.1C48.9 15.1 47.1 18.5 46.2 20.4Z" fill="url(#paint1_linear)"/>
<path fill-rule="evenodd" clip-rule="evenodd" d="M80 18.5C79.9 18.2 79.6 18.2 79.5 18.2C79.3 18.2 79.1 18.3 79 18.6C77.8 21.4 76.1 23.3 74.9 23.3H74.8C74.5 23.3 74.2 23.1 74.1 22.9C73.7 22.4 73.8 21.4 74.1 20.2C74.7 18.5 76.1 16.3 78.1 14.1C79.3 12.8 78.4 11 77.6 10.1C77.1 9.50005 76.5 9.90005 76.2 10.1C75 11 73.9 11.5 72.9 11.7C73.3 10.5 73.9 8.50005 73.3 7.70005C73.1 7.50005 72.9 7.30005 72.6 7.30005C71.4 7.30005 69.5 9.60005 69.2 11.4C69 12.4 69.3 13.1 70 13.5C69.4 14.4 68.7 15 67.9 15.3V15.1C68 13 67.4 12.3 66.7 11.6L66.1 11C65.4 10.1 64.7 9.60005 63.5 9.70005C61.4 9.90005 59.1 11.7 57.6 14.5C55.8 17.8 55.6 20.8 57.1 22.8C58.9 25.2 61.2 24.6 61.9 24.4C64.6 23.5 66.8 19.9 67.6 16.8C69.3 16.7 70.8 15.7 72 13.9C72.7 13.9 73.8 13.8 75.1 13.1C73.7 14.7 72.1 16.9 71.5 18.9C71 20.6 71.1 22.2 71.9 23.3C72.5 24.2 73.5 24.7 74.7 24.7H74.9C76.8 24.7 78.9 23.1 79.9 20.9C80.4 20 80.2 19 80 18.5ZM59.2 22.7C58.4 22 58.8 19 60.4 16.2C61 15.1 61.9 14 62.7 13.2C62.9 14.4 63.7 15.6 64.9 16.3C64.7 17.1 64.3 17.9 63.7 19C62.3 21.6 60.8 22.6 59.9 22.8C59.6 22.9 59.3 22.8 59.2 22.7ZM64.8 12.9C64.7 13.6 64.9 14.2 65.3 14.7C65.3078 14.6374 65.3157 14.5759 65.3234 14.5156C65.4138 13.806 65.4843 13.253 65.3 12.7C65.3 12.3 65.1 12.2 65.1 12.2C65.1 12.2 64.9 12.4 64.8 12.9Z" fill="url(#paint2_linear)"/>
<path d="M104.2 9.29991C103.5 10.1999 102.7 11.4999 101.7 13.1999C101.6 13.3999 101.4 13.5999 101.2 13.6999C101 13.6999 100.8 13.5999 100.5 13.3999C99.9 12.6999 99.2 11.5999 100.1 9.69991C100.4 9.09991 100.8 8.39991 101.3 7.59991C102.1 6.39991 103.1 4.79991 102.7 4.39991C102.5 4.19991 102 4.19991 101.1 4.59991C98 5.79991 93.1 9.69991 93 12.8999C92.9 14.4999 95.5 15.9999 97.5 17.1999C98.2 17.5999 98.9 17.9999 99.4 18.3999C100 18.7999 100.3 19.2999 100.4 19.9999C100.5 20.8999 100 21.9999 99.1 23.1999C98.1 24.3999 96.3 25.0999 94.3 25.0999H94.2C92.4 25.0999 88.8 24.3999 85.4 20.2999C85.2 19.9999 85.1 19.6999 85.1 19.4999C85.1 19.3999 85.2 19.1999 85.6 19.0999C86.8 18.6999 88.4 18.9999 89.4 19.8999C91.2 21.2999 93.4 22.7999 95.4 22.7999C96.3 22.7999 97 22.5999 97.4 22.1999C97.6 21.9999 97.7 21.6999 97.7 21.3999C97.7 21.0999 97.6 20.8999 97.3 20.6999C96.8 20.2999 96.1 19.8999 95.3 19.3999C92.9 17.8999 89.7 15.8999 89.7 13.0999C89.7 7.89991 95.7 3.69991 98.6 2.49991C100.8 1.59991 102.4 1.59991 103.5 2.59991C104.4 3.39991 105.1 4.59991 105.4 5.69991C105.5 6.69991 105.2 7.99991 104.2 9.29991Z" fill="url(#paint3_linear)"/>
<path fill-rule="evenodd" clip-rule="evenodd" d="M154.1 18C154.3 18 154.5 18.2 154.6 18.4C154.8 18.8 154.7 19.8 154.3 20.6C152.7 23 149.8 24.6 147.1 24.6H147C144.7 24.6 143 23.5 142.3 21.5C140.7 23.3 138.2 24.6 135.9 24.6H135.8C133.7 24.6 132.2 23.6 131.4 22C130.3 23.5 128.5 24.8 126.8 24.7C125.1 24.6 123.9 23.7 123.7 22.2C122.8 23.3 121.3 24.6 119.5 24.6C118.1 24.6 117 23.8 116.6 22.4C115.3 23.9 113.3 24.7 111.1 24.9C108.7 25 107.1 24.6 105.9 23.5C105.3 23 104.9 22.4 104.7 21.7C102.9 24.9 101.3 28.3 99.8 31.7C99.7 32 99.4 32.1 99.3 32.1C99.2 32.1 99 32.1 98.8 31.8C98.1 30.9 98.1 29.7 98.7 27.7C99.8 24.1 105.8 12.8 108 9.9C108.3 9.5 108.5 9.5 108.7 9.5C108.8 9.5 109 9.6 109.2 10C109.3 10.4 109.4 10.8 109.4 11.2C111.4 9.6 113.2 9.5 114.5 10.8C116 12.4 115.9 15.2 114.2 19C113.4 20.9 112.3 22.4 111.2 23.4C113.8 22.9 115.5 20.9 116.4 19.2C116.7 18 117.3 16.7 118.1 15.5C120.6 11.8 123.5 9.6 125.8 9.6C126.5 9.6 127.1 9.9 127.5 10.3C127.8 10.7 128 11.1 128.1 11.6C128.4 11 128.7 10.5 129 10.1C129.2 9.8 129.5 9.6 129.7 9.6C129.9 9.6 130 9.7 130.2 9.9C130.8 10.6 131.1 12.2 130.2 14.1C130.106 14.265 130.006 14.4411 129.901 14.627L129.9 14.6275L129.9 14.6279C129.558 15.2305 129.158 15.9361 128.7 16.7C128 17.9 127.3 19.2 126.8 20.2C126.2 21.5 126 22.7 126.3 23.1C126.4 23.3 126.6 23.3 126.8 23.3C127.8 23.2 129.3 21.8 130.6 19.6C130.6 18.3 131 16.8 131.7 15.4C133.1 12.6 135.3 10.4 137.4 9.8C138.3 9.6 139.1 9.6 139.7 10C140.7 10.6 141.3 11.2 141.7 12.1C142.3 13.3 141.7 14.6 141 16.1C140.7 16.6 140.5 17.1 140.3 17.5999L140.3 17.6C140.2 17.9 140.1 18.1 139.9 18.2C139.7 18.3 139.4 18.2 139.2 18.1C138.3 17.7 137.6 16.5 138.2 14.7C138.4 14.3 138.6 13.8 138.8 13.3C139.1 12.8 139.5 11.9 139.3 11.8H139.1C138.3 11.9 136.2 14 134.8 16.7C133.4 19.6 133.5 21.6 134.1 22.6C134.4 23.1 134.9 23.4 135.5 23.4C138.2 23.4 140.5 20.8 141.7 19.2C141.8 18 142.2 16.8 142.8 15.6C144.2 12.7 146.4 10.5 148.5 9.9C149.4 9.6 150.3 9.6 150.9 10C151.9 10.6 152.5 11.1 153.1 11.9C153.8 12.9 153.5 15.2 151.9 17.1C150.8 18.4 149.6 19.2 148.3 19.3C147.2 19.4 146.2 19 145.2 18.3C144.7 20.1 144.7 21.6 145.3 22.5C145.6 23 146.1 23.3 146.7 23.3C149.9 23.4 152.6 19.8 153.6 18.3C153.7 18.1 153.9 18 154.1 18ZM150.5 11.8C149.5 12 147.3 13.8 145.9 16.6C145.862 16.6763 145.838 16.738 145.818 16.7907L145.818 16.7909L145.818 16.791C145.785 16.8764 145.762 16.9382 145.7 17C147.1 17.8 148.4 16.5 149.4 15.2C150.7 13.5 151.1 12 150.9 11.8H150.5ZM107 22.7C106.8 22.7 106.6 22.7 106.4 22.6C105.6 21.9 105.6 20 106.5 17.7C106.9 17.1 107.3 16.4 107.7 15.7L107.7 15.7L107.7 15.7C109.4 12.8 111.5 11.4 112.1 11.7C112.2 11.7 112.3 11.8 112.3 12C112.6 12.9 112.3 15.1 111.1 17.6C109.9 20.3 108.2 22.4 107 22.7ZM119 22.8C119.2 23 119.3 23.1 119.5 23.1C120.4 23.1 121.9 22.2 124.3 17.8C126.2 14.5 126.6 12.6 126.3 12.1C126.2 12 126.1 11.9 126 11.9C125 11.9 122.5 14.1 120.6 17.2C119.1 19.7 118.6 22 119 22.8Z" fill="url(#paint4_linear)"/>
<defs>
<linearGradient id="paint0_linear" x1="3.368" y1="1.7019" x2="1.9631" y2="20.6812" gradientUnits="userSpaceOnUse">
<stop stop-color="#FFBA2F"/>
<stop offset="1" stop-color="#FF8931"/>
</linearGradient>
<linearGradient id="paint1_linear" x1="22.6672" y1="3.50984" x2="22.2209" y2="22.5258" gradientUnits="userSpaceOnUse">
<stop stop-color="#FFBA2F"/>
<stop offset="1" stop-color="#FF8931"/>
</linearGradient>
<linearGradient id="paint2_linear" x1="55.881" y1="5.31078" x2="55.2948" y2="24.3274" gradientUnits="userSpaceOnUse">
<stop stop-color="#FFBA2F"/>
<stop offset="1" stop-color="#FF8931"/>
</linearGradient>
<linearGradient id="paint3_linear" x1="87.2051" y1="6.63888" x2="85.7325" y2="25.612" gradientUnits="userSpaceOnUse">
<stop stop-color="#FFBA2F"/>
<stop offset="1" stop-color="#FF8931"/>
</linearGradient>
<linearGradient id="paint4_linear" x1="103.454" y1="8.93335" x2="103.274" y2="27.9423" gradientUnits="userSpaceOnUse">
<stop stop-color="#FFBA2F"/>
<stop offset="1" stop-color="#FF8931"/>
</linearGradient>
</defs>
</svg>
