<svg width="23" height="23" viewBox="0 0 23 23" fill="none" xmlns="http://www.w3.org/2000/svg">
<path fill-rule="evenodd" clip-rule="evenodd" d="M4.4242 1.01855H18.4405C20.3215 1.01855 21.8464 2.54332 21.8463 4.42431V18.4406C21.8463 20.3216 20.3215 21.8465 18.4405 21.8465H4.4242C2.5432 21.8465 1.01837 20.3216 1.01837 18.4406V4.42438C1.01837 2.54339 2.5432 1.01855 4.4242 1.01855ZM6.37379 11.4325C6.37379 14.2263 8.63868 16.4911 11.4324 16.4911C14.2262 16.4911 16.4911 14.2263 16.4911 11.4325C16.4911 8.63866 14.2263 6.37383 11.4324 6.37383C8.63861 6.37383 6.37379 8.63866 6.37379 11.4325Z" fill="#FFE2A6"/>
<path fill-rule="evenodd" clip-rule="evenodd" d="M18.4405 22.8288C20.8602 22.8288 22.8288 20.8601 22.8288 18.4404V4.42415C22.8288 2.00442 20.8602 0.0358887 18.4405 0.0358887H4.42431C2.00457 0.0358887 0.0360413 2.00449 0.0360413 4.42415V18.4405C0.0360413 20.8602 2.00457 22.8288 4.42431 22.8288H18.4405ZM2.00092 4.42422C2.00092 3.08792 3.08801 2.00083 4.42431 2.00083V2.00077H18.4405C19.7768 2.00077 20.8639 3.08792 20.8639 4.42415V18.4405C20.8639 19.7768 19.7768 20.8639 18.4405 20.8639H4.42431C3.08801 20.8639 2.00092 19.7767 2.00092 18.4405V4.42422ZM11.4324 17.4734C8.10133 17.4734 5.39132 14.7634 5.39132 11.4323C5.39132 8.10124 8.10133 5.39124 11.4324 5.39124C14.7635 5.39124 17.4735 8.10124 17.4735 11.4323C17.4735 14.7634 14.7635 17.4734 11.4324 17.4734ZM7.35626 11.4323C7.35626 9.18461 9.18476 7.35611 11.4324 7.35611C13.6799 7.35611 15.5086 9.18461 15.5086 11.4323C15.5086 13.68 13.68 15.5085 11.4324 15.5085C9.18476 15.5085 7.35626 13.68 7.35626 11.4323Z" fill="#FFAA2F"/>
<path d="M17.548 6.62625C18.312 6.62625 18.9314 6.00692 18.9314 5.24293C18.9314 4.47895 18.312 3.85962 17.548 3.85962C16.7841 3.85962 16.1647 4.47895 16.1647 5.24293C16.1647 6.00692 16.7841 6.62625 17.548 6.62625Z" fill="#FFAA2F"/>
</svg>
