<svg width="23" height="23" viewBox="0 0 23 23" fill="none" xmlns="http://www.w3.org/2000/svg">
<path fill-rule="evenodd" clip-rule="evenodd" d="M18.5 1.80005H4.50002C3.10002 1.80005 1.90002 3.00005 1.90002 4.40005V18.4C1.90002 19.8 3.10002 21 4.50002 21H18.5C19.9 21 21.1 19.8 21.1 18.4V4.40005C21.1 3.00005 19.9 1.80005 18.5 1.80005ZM11.4 17.2C8.20002 17.2 5.60002 14.6 5.60002 11.4C5.60002 8.20005 8.20002 5.60005 11.4 5.60005C14.6 5.60005 17.2 8.20005 17.2 11.4C17.2 14.6 14.6 17.2 11.4 17.2ZM15.9 5.20005C15.9 6.10005 16.6 6.80005 17.5 6.80005C18.4 6.80005 19.1 6.10005 19.1 5.20005C19.1 4.30005 18.4 3.60005 17.5 3.60005C16.6 3.60005 15.9 4.30005 15.9 5.20005Z" fill="#DBFAEB"/>
<path fill-rule="evenodd" clip-rule="evenodd" d="M4.39995 0.199951H18.4C20.7 0.199951 22.6 2.09995 22.6 4.39995V18.4C22.6 20.7 20.7 22.6 18.4 22.6H4.39995C2.09995 22.6 0.199951 20.7 0.199951 18.4V4.39995C0.199951 2.09995 2.09995 0.199951 4.39995 0.199951ZM18.5 21C19.9 21 21.1 19.8 21.1 18.4V4.39995C21.1 2.99995 19.9 1.79995 18.5 1.79995H4.49995C3.09995 1.79995 1.89995 2.99995 1.89995 4.39995V18.4C1.89995 19.8 3.09995 21 4.49995 21H18.5Z" fill="#42CD8C"/>
<path fill-rule="evenodd" clip-rule="evenodd" d="M5.59998 11.4001C5.59998 8.2001 8.19998 5.6001 11.4 5.6001C14.6 5.6001 17.2 8.2001 17.2 11.4001C17.2 14.6001 14.6 17.2001 11.4 17.2001C8.19998 17.2001 5.59998 14.6001 5.59998 11.4001ZM7.09998 11.4001C7.09998 13.8001 8.99998 15.7001 11.4 15.7001C13.8 15.7001 15.7 13.8001 15.7 11.5001C15.7 9.1001 13.8 7.2001 11.4 7.2001C9.09998 7.2001 7.19998 9.1001 7.09998 11.4001Z" fill="#42CD8C"/>
<path d="M19.1 5.2001C19.1 6.1001 18.4 6.8001 17.5 6.8001C16.6 6.8001 15.9 6.1001 15.9 5.2001C15.9 4.3001 16.6 3.6001 17.5 3.6001C18.4 3.6001 19.1 4.3001 19.1 5.2001Z" fill="#42CD8C"/>
</svg>
