<svg width="40" height="53" viewBox="0 0 40 53" fill="none" xmlns="http://www.w3.org/2000/svg">
<g opacity="0.919922">
<path fill-rule="evenodd" clip-rule="evenodd" d="M2.05548 19.9445C2.05548 10.0499 10.1054 2 20 2C29.8946 2 37.9444 10.0499 37.9446 19.9445C37.9446 32.2239 21.886 50.2509 21.2023 51.0124C20.5612 51.7264 19.44 51.7276 18.7978 51.0124C18.1141 50.2509 2.05548 32.2239 2.05548 19.9445ZM10.9718 19.9445C10.9718 24.9227 15.0218 28.9728 20 28.9728C24.9782 28.9728 29.0282 24.9228 29.0282 19.9445C29.0282 14.9663 24.9782 10.9162 20 10.9162C15.0219 10.9162 10.9718 14.9662 10.9718 19.9445Z" fill="#D8FAEA"/>
<path d="M37.9446 19.9445H39.2446V19.9444L37.9446 19.9445ZM21.2023 51.0124L20.235 50.1438L20.2349 50.1439L21.2023 51.0124ZM18.7978 51.0124L19.7651 50.1439L19.7651 50.1438L18.7978 51.0124ZM20 0.7C9.38739 0.7 0.755481 9.3319 0.755481 19.9445H3.35548C3.35548 10.7678 10.8233 3.3 20 3.3V0.7ZM39.2446 19.9444C39.2444 9.33191 30.6126 0.7 20 0.7V3.3C29.1766 3.3 36.6444 10.7678 36.6446 19.9445L39.2446 19.9444ZM22.1695 51.8809C22.5298 51.4797 26.7614 46.7305 30.9107 40.5199C32.9854 37.4146 35.057 33.9183 36.6137 30.3979C38.1633 26.8936 39.2446 23.2731 39.2446 19.9445H36.6446C36.6446 22.7555 35.7186 25.9932 34.2358 29.3464C32.7601 32.6835 30.7743 36.0439 28.7489 39.0755C24.698 45.1386 20.5585 49.7836 20.235 50.1438L22.1695 51.8809ZM17.8305 51.8809C18.9898 53.1721 21.0126 53.1695 22.1696 51.8808L20.2349 50.1439C20.1098 50.2832 19.8902 50.2831 19.7651 50.1439L17.8305 51.8809ZM0.755481 19.9445C0.755481 23.2731 1.8368 26.8936 3.38638 30.3979C4.94309 33.9183 7.01463 37.4146 9.08931 40.5199C13.2387 46.7305 17.4703 51.4797 17.8305 51.8809L19.7651 50.1438C19.4416 49.7836 15.3021 45.1386 11.2512 39.0755C9.22576 36.0439 7.23991 32.6835 5.76427 29.3464C4.28149 25.9932 3.35548 22.7555 3.35548 19.9445H0.755481ZM20 27.6728C15.7398 27.6728 12.2718 24.2048 12.2718 19.9445H9.67177C9.67177 25.6407 14.3038 30.2728 20 30.2728V27.6728ZM27.7282 19.9445C27.7282 24.2048 24.2602 27.6728 20 27.6728V30.2728C25.6962 30.2728 30.3282 25.6408 30.3282 19.9445H27.7282ZM20 12.2162C24.2602 12.2162 27.7282 15.6842 27.7282 19.9445H30.3282C30.3282 14.2483 25.6962 9.61619 20 9.61619V12.2162ZM12.2718 19.9445C12.2718 15.6842 15.7398 12.2162 20 12.2162V9.61619C14.3039 9.61619 9.67177 14.2482 9.67177 19.9445H12.2718Z" fill="#40CD8B"/>
</g>
</svg>
