<svg width="20" height="20" viewBox="0 0 20 20" fill="none" xmlns="http://www.w3.org/2000/svg">
<path d="M6.89337 7.65136L5.99771 8.54716C6.03949 8.62378 6.08099 8.70664 6.12795 8.79016C6.55434 9.55908 7.13532 10.6113 8.24263 11.7186C9.35271 12.8283 10.4053 13.4133 11.1743 13.8394C11.2551 13.8853 11.308 13.9041 11.3836 13.9458L12.1733 13.1056L12.2603 13.0185C12.9261 12.3528 14.0054 12.3528 14.6712 13.0185L16.45 14.7973C17.1194 15.4668 17.1152 16.5535 16.4404 17.2176L16.0849 17.5675C15.7935 17.7953 15.4545 17.9886 15.093 18.1302C14.7477 18.2611 14.4171 18.3448 14.0881 18.381C11.4447 18.7007 9.02836 17.493 5.74963 14.2157C1.21927 9.68396 1.56001 6.03199 1.57766 5.87423C1.61807 5.53174 1.70005 5.20284 1.82952 4.86826C1.9697 4.50952 2.16592 4.16759 2.39382 3.87756L2.74349 3.52197C3.4075 2.84662 4.49474 2.84204 5.16442 3.51178L6.8933 5.24066C7.55902 5.90634 7.55902 6.98564 6.89337 7.65136Z" fill="#D9F5E8"/>
<path fill-rule="evenodd" clip-rule="evenodd" d="M5.37196 14.5936C8.43725 17.6576 10.8019 18.965 13.2787 18.965L13.2793 18.965C13.5647 18.965 13.8574 18.9471 14.1495 18.912C14.5194 18.871 14.8901 18.7787 15.2825 18.63L15.288 18.6279C15.6924 18.4696 16.0818 18.2484 16.4143 17.9885C16.4302 17.976 16.4454 17.9626 16.4599 17.9484L16.8154 17.5985C17.2441 17.1766 17.4814 16.613 17.4838 16.0115C17.4862 15.4101 17.2533 14.8447 16.828 14.4194L15.0492 12.6406C14.6263 12.2177 14.064 11.9849 13.4659 11.9849C12.8679 11.9849 12.3055 12.2177 11.8826 12.6406L11.7955 12.7277L11.7839 12.7396L11.2732 13.2831C10.5512 12.8808 9.60662 12.3265 8.62061 11.3407C7.61877 10.3389 7.06224 9.37122 6.65759 8.6431L7.27138 8.02931C8.14427 7.15628 8.14427 5.73582 7.27131 4.86275L5.54236 3.1338C5.11947 2.71094 4.55716 2.47803 3.9591 2.47803C3.35382 2.47803 2.78675 2.7157 2.36242 3.14728L2.01275 3.50287C1.99895 3.51698 1.98586 3.5318 1.97363 3.54735C1.71113 3.8815 1.48921 4.27099 1.33117 4.67532C1.1858 5.05098 1.09283 5.42264 1.0466 5.81496C1.03392 5.92821 0.93811 6.96738 1.44915 8.56732C2.10408 10.6174 3.42383 12.6449 5.37196 14.5936ZM2.32737 5.06271C2.4436 4.76525 2.60553 4.47802 2.79663 4.23016L3.12458 3.89653C3.34629 3.67097 3.6427 3.54675 3.95906 3.54675C4.27161 3.54675 4.56546 3.66848 4.7865 3.88952L6.51555 5.61829C6.97186 6.07463 6.97186 6.81708 6.51562 7.27331L5.6199 8.16911C5.45226 8.33671 5.41514 8.59474 5.52864 8.80282C5.54197 8.82734 5.5553 8.85263 5.56887 8.87835C5.57144 8.88323 5.57402 8.88812 5.57661 8.89303C5.60386 8.94493 5.63201 8.99823 5.66066 9.04915L5.66717 9.06091C6.10726 9.85463 6.71009 10.9416 7.86485 12.0964C9.03072 13.262 10.1184 13.8651 10.913 14.3054C10.9698 14.3376 11.0163 14.3598 11.0539 14.3778L11.0571 14.3793C11.0598 14.3806 11.0625 14.3819 11.0652 14.3832C11.0841 14.3922 11.1033 14.4014 11.1251 14.4134C11.3389 14.5317 11.6057 14.4898 11.7731 14.3117L12.5571 13.4774L12.6382 13.3963C12.8593 13.1752 13.1532 13.0535 13.4658 13.0535C13.7784 13.0535 14.0723 13.1752 14.2933 13.3963L16.072 15.175C16.2944 15.3973 16.416 15.6928 16.4148 16.0071C16.4137 16.3215 16.2896 16.6161 16.0655 16.8366L15.7326 17.1643C15.4866 17.353 15.1997 17.5142 14.901 17.6314C14.594 17.7475 14.3089 17.819 14.0296 17.8497L14.024 17.8504C13.7733 17.8807 13.5227 17.8961 13.279 17.8961H13.2786C11.1122 17.8959 8.97322 16.6822 6.12764 13.8377C3.85288 11.5623 2.88158 9.53883 2.4673 8.24202C2.01604 6.82933 2.10783 5.94215 2.10846 5.93669C2.14362 5.63825 2.21544 5.35183 2.32737 5.06271Z" fill="#40CD8B"/>
<path d="M13.2787 18.965L13.3058 18.4657L13.2923 18.465H13.2787V18.965ZM5.37196 14.5936L5.01835 14.9471L5.01848 14.9472L5.37196 14.5936ZM13.2793 18.965L13.2521 19.4643L13.2657 19.465H13.2793V18.965ZM14.1495 18.912L14.0944 18.415L14.0897 18.4155L14.1495 18.912ZM15.2825 18.63L15.4597 19.0976L15.4636 19.0961L15.2825 18.63ZM15.288 18.6279L15.4691 19.0939L15.4703 19.0935L15.288 18.6279ZM16.4143 17.9885L16.7223 18.3823L16.7224 18.3822L16.4143 17.9885ZM16.4599 17.9484L16.81 18.3053L16.8107 18.3047L16.4599 17.9484ZM16.8154 17.5985L16.4647 17.2421L16.4646 17.2421L16.8154 17.5985ZM17.4838 16.0115L16.9838 16.0095V16.0096L17.4838 16.0115ZM16.828 14.4194L16.4744 14.773L16.4744 14.773L16.828 14.4194ZM15.0492 12.6406L15.4028 12.2871L15.4028 12.2871L15.0492 12.6406ZM11.8826 12.6406L11.529 12.2871L11.529 12.2871L11.8826 12.6406ZM11.7955 12.7277L11.4419 12.3741L11.4367 12.3795L11.7955 12.7277ZM11.7839 12.7396L11.4251 12.3913L11.4196 12.3972L11.7839 12.7396ZM11.2732 13.2831L11.0299 13.7199L11.3705 13.9097L11.6376 13.6255L11.2732 13.2831ZM8.62061 11.3407L8.26705 11.6943L8.2671 11.6943L8.62061 11.3407ZM6.65759 8.6431L6.30404 8.28954L6.03731 8.55627L6.22055 8.88598L6.65759 8.6431ZM7.27138 8.02931L7.62493 8.38286L7.62496 8.38284L7.27138 8.02931ZM7.27131 4.86275L7.62488 4.50922L7.62486 4.50919L7.27131 4.86275ZM5.54236 3.1338L5.89592 2.78025L5.8959 2.78023L5.54236 3.1338ZM2.36242 3.14728L2.71893 3.49786L2.71896 3.49783L2.36242 3.14728ZM2.01275 3.50287L1.65624 3.1523L1.65523 3.15333L2.01275 3.50287ZM1.97363 3.54735L1.58054 3.23836L1.58045 3.23847L1.97363 3.54735ZM1.33117 4.67532L0.865475 4.4933L0.864864 4.49488L1.33117 4.67532ZM1.0466 5.81496L0.550026 5.75645L0.549703 5.75934L1.0466 5.81496ZM1.44915 8.56732L0.972855 8.71945L0.972862 8.71947L1.44915 8.56732ZM2.79663 4.23016L2.44006 3.87965L2.41899 3.90107L2.40065 3.92487L2.79663 4.23016ZM2.32737 5.06271L1.86165 4.88073L1.86108 4.8822L2.32737 5.06271ZM3.12458 3.89653L3.48116 4.24703L3.48117 4.24702L3.12458 3.89653ZM4.7865 3.88952L4.43295 4.24307L4.43298 4.2431L4.7865 3.88952ZM6.51555 5.61829L6.86912 5.26475L6.86908 5.26471L6.51555 5.61829ZM6.51562 7.27331L6.16207 6.91976L6.16206 6.91977L6.51562 7.27331ZM5.6199 8.16911L5.97341 8.5227L5.97346 8.52265L5.6199 8.16911ZM5.52864 8.80282L5.96789 8.56395L5.96759 8.5634L5.52864 8.80282ZM5.56887 8.87835L5.12659 9.11157L5.1266 9.11159L5.56887 8.87835ZM5.57661 8.89303L6.01932 8.66063L6.01879 8.65963L5.57661 8.89303ZM5.66066 9.04915L6.09811 8.80698L6.09643 8.80399L5.66066 9.04915ZM5.66717 9.06091L5.22973 9.30307L5.22989 9.30337L5.66717 9.06091ZM7.86485 12.0964L7.5113 12.4499L7.51134 12.45L7.86485 12.0964ZM10.913 14.3054L11.1598 13.8705L11.1553 13.868L10.913 14.3054ZM11.0539 14.3778L10.8382 14.8289L10.8382 14.8289L11.0539 14.3778ZM11.0571 14.3793L10.8413 14.8304L10.8414 14.8304L11.0571 14.3793ZM11.0652 14.3832L10.8501 14.8346L10.8502 14.8346L11.0652 14.3832ZM11.1251 14.4134L10.8827 14.8508L10.8831 14.851L11.1251 14.4134ZM11.7731 14.3117L12.1374 14.6542L12.1374 14.6541L11.7731 14.3117ZM12.5571 13.4774L12.2036 13.1238L12.1981 13.1293L12.1927 13.135L12.5571 13.4774ZM12.6382 13.3963L12.9918 13.7498L12.9918 13.7498L12.6382 13.3963ZM14.2933 13.3963L13.9397 13.7498L13.9397 13.7498L14.2933 13.3963ZM16.072 15.175L15.7185 15.5286L15.7185 15.5286L16.072 15.175ZM16.4148 16.0071L15.9148 16.0052V16.0053L16.4148 16.0071ZM16.0655 16.8366L15.7148 16.4802L15.7148 16.4803L16.0655 16.8366ZM15.7326 17.1643L16.0369 17.5611L16.0614 17.5423L16.0834 17.5206L15.7326 17.1643ZM14.901 17.6314L15.0779 18.0991L15.0837 18.0968L14.901 17.6314ZM14.0296 17.8497L13.9748 17.3528L13.9733 17.3529L14.0296 17.8497ZM14.024 17.8504L13.9678 17.3535L13.964 17.354L14.024 17.8504ZM13.2786 17.8961L13.2786 18.3961H13.2786V17.8961ZM6.12764 13.8377L5.77403 14.1912L5.77416 14.1914L6.12764 13.8377ZM2.4673 8.24202L1.99101 8.39416L1.99102 8.39418L2.4673 8.24202ZM2.10846 5.93669L1.61189 5.87819L1.61176 5.87937L2.10846 5.93669ZM13.2787 18.465C11.0044 18.465 8.76201 17.2753 5.72544 14.24L5.01848 14.9472C8.11248 18.04 10.5993 19.465 13.2787 19.465V18.465ZM13.3065 18.4658L13.3058 18.4657L13.2515 19.4642L13.2521 19.4643L13.3065 18.4658ZM14.0897 18.4155C13.8168 18.4484 13.544 18.465 13.2793 18.465V19.465C13.5853 19.465 13.898 19.4458 14.2092 19.4084L14.0897 18.4155ZM15.1054 18.1624C14.7472 18.2981 14.4176 18.3792 14.0944 18.415L14.2045 19.4089C14.6212 19.3628 15.0329 19.2592 15.4596 19.0976L15.1054 18.1624ZM15.1069 18.1618L15.1014 18.164L15.4636 19.0961L15.4691 19.0939L15.1069 18.1618ZM16.1063 17.5946C15.8131 17.8239 15.4662 18.0212 15.1058 18.1623L15.4703 19.0935C15.9186 18.918 16.3506 18.673 16.7223 18.3823L16.1063 17.5946ZM16.1098 17.5914C16.1078 17.5933 16.1066 17.5944 16.1062 17.5947L16.7224 18.3822C16.7539 18.3576 16.783 18.3318 16.81 18.3053L16.1098 17.5914ZM16.4646 17.2421L16.1092 17.592L16.8107 18.3047L17.1661 17.9548L16.4646 17.2421ZM16.9838 16.0096C16.9819 16.4777 16.7983 16.9137 16.4647 17.2421L17.1661 17.9548C17.6898 17.4394 17.9809 16.7482 17.9837 16.0135L16.9838 16.0096ZM16.4744 14.773C16.8054 15.104 16.9856 15.5414 16.9838 16.0095L17.9837 16.0136C17.9867 15.2788 17.7011 14.5854 17.1815 14.0658L16.4744 14.773ZM14.6957 12.9942L16.4744 14.773L17.1815 14.0659L15.4028 12.2871L14.6957 12.9942ZM13.4659 12.4849C13.9314 12.4849 14.3665 12.6651 14.6957 12.9942L15.4028 12.2871C14.8861 11.7704 14.1966 11.4849 13.4659 11.4849V12.4849ZM12.2361 12.9942C12.5652 12.6651 13.0004 12.4849 13.4659 12.4849V11.4849C12.7353 11.4849 12.0457 11.7704 11.529 12.2871L12.2361 12.9942ZM12.1491 13.0813L12.2361 12.9942L11.529 12.2871L11.442 12.3741L12.1491 13.0813ZM12.1427 13.0878L12.1543 13.0759L11.4367 12.3795L11.4252 12.3914L12.1427 13.0878ZM11.6376 13.6255L12.1483 13.082L11.4196 12.3972L10.9089 12.9407L11.6376 13.6255ZM8.2671 11.6943C9.30212 12.7291 10.2943 13.3101 11.0299 13.7199L11.5166 12.8463C10.808 12.4515 9.91111 11.9239 8.97412 10.9871L8.2671 11.6943ZM6.22055 8.88598C6.63107 9.62467 7.21471 10.6419 8.26705 11.6943L8.97416 10.9872C8.02283 10.0358 7.49341 9.11777 7.09464 8.40021L6.22055 8.88598ZM6.91782 7.67576L6.30404 8.28954L7.01115 8.99665L7.62493 8.38286L6.91782 7.67576ZM6.91773 5.21628C7.59547 5.8941 7.59546 6.99801 6.9178 7.67579L7.62496 8.38284C8.69309 7.31454 8.69308 5.57754 7.62488 4.50922L6.91773 5.21628ZM5.18881 3.48735L6.91775 5.2163L7.62486 4.50919L5.89592 2.78025L5.18881 3.48735ZM3.9591 2.97803C4.42455 2.97803 4.85969 3.15827 5.18882 3.48737L5.8959 2.78023C5.37924 2.26362 4.68977 1.97803 3.9591 1.97803V2.97803ZM2.71896 3.49783C3.04927 3.16187 3.48788 2.97803 3.9591 2.97803V1.97803C3.21977 1.97803 2.52423 2.26954 2.00589 2.79674L2.71896 3.49783ZM2.36926 3.85345L2.71893 3.49786L2.00591 2.79671L1.65624 3.1523L2.36926 3.85345ZM2.36673 3.85634C2.36706 3.85592 2.36815 3.85458 2.37027 3.85241L1.65523 3.15333C1.62976 3.17939 1.60465 3.20768 1.58054 3.23836L2.36673 3.85634ZM1.79686 4.85735C1.93743 4.4977 2.13517 4.1511 2.36682 3.85622L1.58045 3.23847C1.28709 3.6119 1.04099 4.04428 0.865478 4.4933L1.79686 4.85735ZM1.54316 5.87347C1.58435 5.52393 1.6669 5.19319 1.79747 4.85577L0.864864 4.49488C0.704703 4.90877 0.601302 5.32135 0.550035 5.75645L1.54316 5.87347ZM1.92544 8.41518C1.43941 6.89355 1.53721 5.9267 1.5435 5.87058L0.549703 5.75934C0.530631 5.92972 0.436806 7.04122 0.972855 8.71945L1.92544 8.41518ZM5.72556 14.2401C3.81845 12.3324 2.55027 10.3711 1.92543 8.41516L0.972862 8.71947C1.65789 10.8638 3.0292 12.9574 5.01835 14.9471L5.72556 14.2401ZM2.40065 3.92487C2.18001 4.21105 1.99482 4.53993 1.86166 4.88073L2.79308 5.24468C2.89237 4.99057 3.03104 4.745 3.1926 4.53545L2.40065 3.92487ZM2.76801 3.54602L2.44006 3.87965L3.1532 4.58066L3.48116 4.24703L2.76801 3.54602ZM3.95906 3.04675C3.50868 3.04675 3.08377 3.22477 2.768 3.54603L3.48117 4.24702C3.60882 4.11716 3.77671 4.04675 3.95906 4.04675V3.04675ZM5.14006 3.53597C4.82526 3.22117 4.40424 3.04675 3.95906 3.04675V4.04675C4.13898 4.04675 4.30566 4.11578 4.43295 4.24307L5.14006 3.53597ZM6.86908 5.26471L5.14003 3.53594L4.43298 4.2431L6.16203 5.97187L6.86908 5.26471ZM6.86918 7.62686C7.5207 6.97534 7.52064 5.91632 6.86912 5.26475L6.16199 5.97183C6.42307 6.23294 6.42301 6.65881 6.16207 6.91976L6.86918 7.62686ZM5.97346 8.52265L6.86919 7.62685L6.16206 6.91977L5.26633 7.81557L5.97346 8.52265ZM5.96759 8.5634C5.96027 8.54998 5.9627 8.53341 5.97341 8.5227L5.26638 7.81552C4.94182 8.14001 4.87001 8.63949 5.08968 9.04224L5.96759 8.5634ZM6.01115 8.64514C5.99786 8.61994 5.98302 8.59178 5.96789 8.56395L5.08938 9.04169C5.10092 9.06291 5.11275 9.08532 5.12659 9.11157L6.01115 8.64514ZM6.01879 8.65963C6.01625 8.65482 6.01372 8.65002 6.01114 8.64511L5.1266 9.11159C5.12916 9.11644 5.13179 9.12143 5.13443 9.12643L6.01879 8.65963ZM6.09643 8.80399C6.07173 8.76008 6.04659 8.71258 6.01932 8.66063L5.13391 9.12544C5.16113 9.17728 5.1923 9.23638 5.22489 9.29431L6.09643 8.80399ZM6.10462 8.81876L6.0981 8.80699L5.22321 9.29131L5.22973 9.30307L6.10462 8.81876ZM8.21841 11.7428C7.11587 10.6403 6.54077 9.60538 6.10445 8.81846L5.22989 9.30337C5.67375 10.1039 6.3043 11.2429 7.5113 12.4499L8.21841 11.7428ZM11.1553 13.868C10.368 13.4318 9.33216 12.8563 8.21837 11.7428L7.51134 12.45C8.72928 13.6676 9.86871 14.2984 10.6707 14.7427L11.1553 13.868ZM11.2697 13.9268C11.2331 13.9093 11.2002 13.8934 11.1598 13.8705L10.6662 14.7402C10.7394 14.7817 10.7995 14.8104 10.8382 14.8289L11.2697 13.9268ZM11.2728 13.9282L11.2697 13.9268L10.8382 14.8289L10.8413 14.8304L11.2728 13.9282ZM11.2802 13.9318C11.2774 13.9305 11.2751 13.9293 11.2727 13.9282L10.8414 14.8304C10.8444 14.8319 10.8475 14.8333 10.8501 14.8346L11.2802 13.9318ZM11.3674 13.9761C11.3306 13.9557 11.2985 13.9405 11.2802 13.9318L10.8502 14.8346C10.8697 14.8439 10.8761 14.8471 10.8827 14.8508L11.3674 13.9761ZM11.4087 13.9693C11.3979 13.9808 11.3807 13.9834 11.3671 13.9759L10.8831 14.851C11.297 15.0799 11.8134 14.9988 12.1374 14.6542L11.4087 13.9693ZM12.1927 13.135L11.4087 13.9693L12.1374 14.6541L12.9215 13.8198L12.1927 13.135ZM12.2847 13.0427L12.2036 13.1238L12.9107 13.8309L12.9918 13.7498L12.2847 13.0427ZM13.4658 12.5535C13.0207 12.5535 12.5995 12.7279 12.2847 13.0427L12.9918 13.7498C13.119 13.6226 13.2858 13.5535 13.4658 13.5535V12.5535ZM14.6469 13.0427C14.332 12.7278 13.911 12.5535 13.4658 12.5535V13.5535C13.6458 13.5535 13.8125 13.6225 13.9397 13.7498L14.6469 13.0427ZM16.4256 14.8215L14.6469 13.0427L13.9397 13.7498L15.7185 15.5286L16.4256 14.8215ZM16.9148 16.0091C16.9166 15.5615 16.7422 15.138 16.4256 14.8214L15.7185 15.5286C15.8465 15.6566 15.9155 15.8241 15.9148 16.0052L16.9148 16.0091ZM16.4163 17.193C16.7353 16.879 16.9132 16.4568 16.9148 16.009L15.9148 16.0053C15.9142 16.1863 15.8438 16.3533 15.7148 16.4802L16.4163 17.193ZM16.0834 17.5206L16.4163 17.1929L15.7148 16.4803L15.3819 16.808L16.0834 17.5206ZM15.0837 18.0968C15.4245 17.9631 15.7525 17.7791 16.0369 17.5611L15.4284 16.7675C15.2207 16.9268 14.975 17.0652 14.7183 17.166L15.0837 18.0968ZM14.0843 18.3467C14.4118 18.3107 14.738 18.2276 15.0779 18.0991L14.7241 17.1637C14.45 17.2674 14.2061 17.3273 13.9748 17.3528L14.0843 18.3467ZM14.0802 18.3472L14.0858 18.3466L13.9733 17.3529L13.9678 17.3535L14.0802 18.3472ZM13.279 18.3961C13.5435 18.3961 13.8141 18.3794 14.084 18.3468L13.964 17.354C13.7325 17.382 13.502 17.3961 13.279 17.3961V18.3961ZM13.2786 18.3961H13.279V17.3961H13.2786V18.3961ZM5.77416 14.1914C8.64121 17.0573 10.9039 18.3959 13.2786 18.3961L13.2787 17.3961C11.3204 17.3959 9.30523 16.3071 6.48113 13.4841L5.77416 14.1914ZM1.99102 8.39418C2.42934 9.76624 3.44242 11.8589 5.77403 14.1912L6.48125 13.4842C4.26335 11.2657 3.33383 9.31141 2.94359 8.08986L1.99102 8.39418ZM1.61176 5.87937C1.6041 5.94574 1.51541 6.90528 1.99101 8.39416L2.94359 8.08988C2.51667 6.75339 2.61156 5.93856 2.60516 5.994L1.61176 5.87937ZM1.86108 4.8822C1.73451 5.20918 1.65215 5.53653 1.61189 5.87819L2.60503 5.99519C2.63509 5.73998 2.69638 5.49448 2.79365 5.24321L1.86108 4.8822Z" fill="#40CD8B"/>
<path d="M17.9128 9.60155C17.8813 9.60155 17.8493 9.59871 17.8171 9.59294C17.5267 9.54041 17.3338 9.26235 17.3863 8.97194C17.7266 7.08964 17.1238 5.15986 15.7736 3.80972C14.4235 2.45958 12.4938 1.85644 10.6114 2.19707C10.3212 2.2495 10.043 2.05675 9.99042 1.76623C9.93793 1.47578 10.1308 1.19776 10.4213 1.14523C12.6483 0.742645 14.9317 1.4561 16.5294 3.05389C18.1272 4.65169 18.8407 6.9351 18.4381 9.16206C18.3915 9.42036 18.1664 9.60155 17.9128 9.60155Z" fill="#40CD8B" stroke="#40CD8B"/>
<path d="M14.6531 9.60167C14.5902 9.60167 14.5263 9.5905 14.464 9.56693C14.188 9.46247 14.0489 9.15395 14.1534 8.87793C14.5253 7.89535 14.2862 6.7811 13.5443 6.03918C12.8025 5.29726 11.6882 5.05825 10.7056 5.43012C10.4295 5.53483 10.121 5.39556 10.0166 5.11946C9.91209 4.84344 10.0511 4.53492 10.3272 4.43045C11.7021 3.91 13.2616 4.24485 14.3001 5.28339C15.3387 6.32203 15.6734 7.88145 15.1531 9.25631C15.0721 9.47007 14.8689 9.60167 14.6531 9.60167Z" fill="#40CD8B" stroke="#40CD8B"/>
</svg>
