<svg width="22" height="22" viewBox="0 0 22 22" fill="none" xmlns="http://www.w3.org/2000/svg">
<path d="M7.20309 8.1295L6.10839 9.22436C6.15946 9.31801 6.21018 9.41928 6.26757 9.52136C6.78872 10.4612 7.4988 11.7472 8.85219 13.1006C10.209 14.4569 11.4955 15.1718 12.4354 15.6926C12.5341 15.7487 12.5988 15.7717 12.6911 15.8227L13.6563 14.7958L13.7627 14.6893C14.5764 13.8757 15.8956 13.8757 16.7093 14.6893L18.8834 16.8634C19.7016 17.6816 19.6964 19.0099 18.8717 19.8216L18.4372 20.2492C18.081 20.5277 17.6667 20.764 17.2249 20.937C16.8028 21.0969 16.3988 21.1992 15.9966 21.2435C12.7658 21.6342 9.81253 20.1582 5.80519 16.1526C0.268078 10.6138 0.684537 6.15027 0.706109 5.95745C0.755502 5.53885 0.8557 5.13685 1.01394 4.72793C1.18527 4.28947 1.42509 3.87156 1.70364 3.51707L2.13102 3.08247C2.94258 2.25704 4.27144 2.25143 5.08993 3.07001L7.203 5.18308C8.01666 5.9967 8.01666 7.31584 7.20309 8.1295Z" fill="#D9F5E8"/>
<path fill-rule="evenodd" clip-rule="evenodd" d="M5.34346 16.6143C9.08992 20.3592 11.98 21.9571 15.0072 21.9571L15.008 21.9572C15.3568 21.9572 15.7145 21.9353 16.0715 21.8923C16.5237 21.8422 16.9767 21.7294 17.4564 21.5477L17.4631 21.5451C17.9573 21.3516 18.4333 21.0814 18.8396 20.7636C18.8591 20.7484 18.8777 20.732 18.8954 20.7146L19.3299 20.287C19.8538 19.7713 20.1439 19.0824 20.1468 18.3474C20.1497 17.6123 19.865 16.9212 19.3453 16.4014L17.1712 14.2274C16.6543 13.7105 15.9671 13.4259 15.2361 13.4259C14.5051 13.4259 13.8178 13.7105 13.3009 14.2274L13.1945 14.3338L13.1803 14.3483L12.5561 15.0126C11.6736 14.5209 10.5192 13.8434 9.31403 12.6386C8.08956 11.4141 7.40936 10.2314 6.91479 9.34148L7.66497 8.5913C8.73184 7.52426 8.73184 5.78814 7.66489 4.72105L5.55173 2.6079C5.03486 2.09107 4.3476 1.8064 3.61663 1.8064C2.87685 1.8064 2.18376 2.09689 1.66514 2.62438L1.23776 3.05898C1.2209 3.07623 1.20489 3.09434 1.18995 3.11334C0.869114 3.52175 0.59788 3.99779 0.404717 4.49198C0.227047 4.95111 0.113409 5.40537 0.0569112 5.88487C0.041417 6.02329 -0.075688 7.29338 0.548915 9.24886C1.34939 11.7545 2.96241 14.2326 5.34346 16.6143ZM1.62229 4.96545C1.76435 4.60189 1.96227 4.25084 2.19583 3.94789L2.59667 3.54012C2.86765 3.26443 3.22992 3.11261 3.61659 3.11261C3.99859 3.11261 4.35774 3.26139 4.6279 3.53156L6.74119 5.6445C7.29889 6.20224 7.29889 7.10968 6.74127 7.6673L5.64649 8.76216C5.4416 8.96701 5.39623 9.28237 5.53495 9.5367C5.55127 9.5667 5.56758 9.59763 5.58417 9.6291C5.5873 9.63503 5.59044 9.64099 5.59359 9.64696C5.62689 9.71039 5.6613 9.77553 5.69632 9.83777L5.70428 9.85215C6.24216 10.8222 6.97895 12.1508 8.39033 13.5621C9.81528 14.9868 11.1446 15.7239 12.1159 16.262C12.1852 16.3014 12.2421 16.3286 12.2881 16.3506L12.2919 16.3524C12.2952 16.354 12.2985 16.3556 12.3018 16.3572C12.325 16.3682 12.3484 16.3794 12.3751 16.3941C12.6363 16.5386 12.9624 16.4875 13.167 16.2698L14.1253 15.2501L14.2245 15.1509C14.4946 14.8807 14.8539 14.732 15.236 14.732C15.618 14.732 15.9772 14.8807 16.2473 15.1509L18.4213 17.325C18.6931 17.5966 18.8418 17.9578 18.8403 18.342C18.8389 18.7262 18.6872 19.0863 18.4134 19.3558L18.0065 19.7563C17.7058 19.9869 17.3552 20.1839 16.9901 20.3272C16.6148 20.4691 16.2664 20.5564 15.925 20.5941L15.9182 20.5948C15.6118 20.6319 15.3055 20.6507 15.0077 20.6507H15.0072C12.3593 20.6505 9.745 19.167 6.26707 15.6905C3.48681 12.9094 2.29967 10.4363 1.79333 8.85128C1.24179 7.12466 1.35397 6.04033 1.35474 6.03365C1.39771 5.66889 1.4855 5.31882 1.62229 4.96545Z" fill="#40CD8B"/>
<path d="M20.6712 10.5131C20.6326 10.5131 20.5936 10.5096 20.5543 10.5025C20.1993 10.4383 19.9635 10.0985 20.0277 9.74353C20.4437 7.44295 19.7068 5.08433 18.0567 3.43415C16.4065 1.78398 14.0479 1.04681 11.7473 1.46314C11.3925 1.52722 11.0525 1.29164 10.9883 0.936555C10.9241 0.581559 11.1599 0.241758 11.5149 0.177555C14.2368 -0.314491 17.0276 0.557505 18.9804 2.51037C20.9332 4.46323 21.8053 7.25407 21.3132 9.9759C21.2562 10.2916 20.9811 10.5131 20.6712 10.5131Z" fill="#40CD8B"/>
<path d="M16.6872 10.5131C16.6103 10.5131 16.5322 10.4994 16.4561 10.4706C16.1187 10.343 15.9487 9.96588 16.0764 9.62852C16.5309 8.42759 16.2387 7.06574 15.332 6.15894C14.4253 5.25215 13.0634 4.96003 11.8624 5.41454C11.525 5.54251 11.148 5.37229 11.0203 5.03484C10.8926 4.69748 11.0625 4.3204 11.4 4.19272C13.0804 3.55661 14.9864 3.96588 16.2558 5.2352C17.5251 6.50465 17.9342 8.4106 17.2982 10.091C17.1993 10.3523 16.9509 10.5131 16.6872 10.5131Z" fill="#40CD8B"/>
</svg>
