<svg width="20" height="27" viewBox="0 0 20 27" fill="none" xmlns="http://www.w3.org/2000/svg">
<path fill-rule="evenodd" clip-rule="evenodd" d="M1.02774 9.97223C1.02774 5.02494 5.05268 1 10 1C14.9473 1 18.9722 5.02494 18.9723 9.97223C18.9723 16.112 10.943 25.1255 10.6011 25.5062C10.2806 25.8632 9.72 25.8638 9.3989 25.5062C9.05705 25.1255 1.02774 16.112 1.02774 9.97223ZM5.48589 9.97223C5.48589 12.4614 7.51089 14.4864 10 14.4864C12.4891 14.4864 14.5141 12.4614 14.5141 9.97227C14.5141 7.48315 12.4891 5.4581 10 5.4581C7.51093 5.4581 5.48589 7.4831 5.48589 9.97223Z" fill="#D8FAEA"/>
<path d="M18.9723 9.97223H19.6223V9.97221L18.9723 9.97223ZM10.6011 25.5062L10.1175 25.0719L10.1175 25.0719L10.6011 25.5062ZM9.3989 25.5062L9.88256 25.0719L9.88254 25.0719L9.3989 25.5062ZM10 0.35C4.69369 0.35 0.377741 4.66595 0.377741 9.97223H1.67774C1.67774 5.38392 5.41166 1.65 10 1.65V0.35ZM19.6223 9.97221C19.6222 4.66596 15.3063 0.35 10 0.35V1.65C14.5883 1.65 18.3222 5.38392 18.3223 9.97224L19.6223 9.97221ZM11.0848 25.9405C11.2649 25.7399 13.3807 23.3652 15.4554 20.2599C16.4927 18.7073 17.5285 16.9591 18.3068 15.1989C19.0816 13.4468 19.6223 11.6366 19.6223 9.97223H18.3223C18.3223 11.3778 17.8593 12.9966 17.1179 14.6732C16.3801 16.3417 15.3872 18.022 14.3744 19.5377C12.349 22.5693 10.2792 24.8918 10.1175 25.0719L11.0848 25.9405ZM8.91524 25.9404C9.49492 26.5861 10.5063 26.5848 11.0848 25.9404L10.1175 25.0719C10.0549 25.1416 9.94508 25.1416 9.88256 25.0719L8.91524 25.9404ZM0.377741 9.97223C0.377741 11.6366 0.918398 13.4468 1.69319 15.1989C2.47154 16.9591 3.50731 18.7073 4.54465 20.2599C6.61934 23.3652 8.73515 25.7399 8.91527 25.9405L9.88254 25.0719C9.7208 24.8918 7.65103 22.5693 5.6256 19.5377C4.61288 18.022 3.61996 16.3417 2.88213 14.6732C2.14075 12.9966 1.67774 11.3778 1.67774 9.97223H0.377741ZM10 13.8364C7.86988 13.8364 6.13589 12.1024 6.13589 9.97223H4.83589C4.83589 12.8203 7.15189 15.1364 10 15.1364V13.8364ZM13.8641 9.97227C13.8641 12.1024 12.1301 13.8364 10 13.8364V15.1364C12.8481 15.1364 15.1641 12.8204 15.1641 9.97227H13.8641ZM10 6.1081C12.1301 6.1081 13.8641 7.84212 13.8641 9.97227H15.1641C15.1641 7.12417 12.8481 4.8081 10 4.8081V6.1081ZM6.13589 9.97223C6.13589 7.84209 7.86991 6.1081 10 6.1081V4.8081C7.15195 4.8081 4.83589 7.12411 4.83589 9.97223H6.13589Z" fill="#40CD8B"/>
</svg>
