<svg width="21" height="18" viewBox="0 0 21 18" fill="none" xmlns="http://www.w3.org/2000/svg">
<path d="M18.463 1.16315L1.89451 7.64816C1.35771 7.85825 1.39039 8.63172 1.94286 8.79538L5.72744 9.91771L6.90378 14.3417C7.06784 14.8649 7.72775 15.0233 8.10977 14.6316L10.4389 12.3991L15.3784 16.258C15.9011 16.6434 16.6455 16.357 16.7782 15.7197L19.607 2.13597C19.7455 1.47053 19.0937 0.916252 18.463 1.16315Z" fill="#D8FAEA"/>
<path fill-rule="evenodd" clip-rule="evenodd" d="M15.9477 17.8198H15.9477C16.7581 17.8198 17.4664 17.2399 17.632 16.441L20.4845 2.68617C20.5886 2.18456 20.4653 1.6698 20.1465 1.27398C19.8243 0.874126 19.3495 0.644775 18.8436 0.644775C18.635 0.644775 18.4291 0.684101 18.2315 0.761784L1.52482 7.32845C0.946527 7.55575 0.589813 8.10671 0.616107 8.73204C0.642344 9.35727 1.04397 9.87578 1.63897 10.0529L5.01415 11.0581L6.08159 15.0897C6.08469 15.1015 6.08813 15.1131 6.09174 15.1248C6.29589 15.7785 6.89043 16.2176 7.57113 16.2176C7.98354 16.2176 8.37072 16.0553 8.66328 15.76L10.4926 13.9992L14.9156 17.4693C14.9216 17.474 14.9276 17.4786 14.9338 17.4832C15.2312 17.7034 15.5819 17.8198 15.9477 17.8198ZM15.9477 16.1667C15.9338 16.1667 15.9217 16.1629 15.9084 16.1541L10.9409 12.2569C10.6205 12.0054 10.1657 12.0286 9.87206 12.3113L7.61689 14.482L6.47876 10.1834C6.40501 9.90515 6.19297 9.68553 5.91909 9.60398L2.69314 8.64321L18.8265 2.30191C18.8334 2.29918 18.8395 2.2977 18.8436 2.2977C18.8526 2.2977 18.866 2.30572 18.8745 2.31631C18.8823 2.32604 18.8835 2.33224 18.8803 2.34772L16.0279 16.1025C16.0149 16.165 15.9545 16.1667 15.9477 16.1667Z" fill="#40CD8B"/>
<path d="M8.51823 15.1627C8.54396 15.2467 9.4828 14.063 9.49279 13.9755L9.07169 11.8962C9.01623 11.6223 9.11463 11.3398 9.32775 11.1612L17.0465 4.69188C17.2322 4.5261 17.0165 4.23375 16.8058 4.36538L7.72902 9.94925C7.51382 10.0817 7.40278 10.3348 7.45034 10.5844L8.51823 15.1627Z" fill="#40CD8B"/>
</svg>
