<svg width="26" height="22" viewBox="0 0 26 22" fill="none" xmlns="http://www.w3.org/2000/svg">
<path d="M23 1.50003L2.4 9.50003C1.7 9.80003 1.7 10.8 2.4 11L7.1 12.4L8.6 17.9C8.8 18.6 9.6 18.8 10.1 18.3L13 15.5L19.2 20.3C19.9 20.8 20.8 20.4 20.9 19.6L24.4 2.60003C24.6 1.80003 23.8 1.10003 23 1.50003V1.50003Z" fill="#D8FAEA"/>
<path fill-rule="evenodd" clip-rule="evenodd" d="M22.9246 1.29701C23.6246 0.997009 24.3246 1.19701 24.8246 1.79701C25.1246 2.19701 25.3246 2.79701 25.1246 3.09701L21.5246 20.297C21.3246 21.097 20.6246 21.697 19.8246 21.697C19.5246 21.697 19.1246 21.497 18.8246 21.297L13.0246 16.797L10.5246 19.297C10.2246 19.597 9.82463 19.797 9.42463 19.797C8.82463 19.797 8.22463 19.397 7.92463 18.697L6.52463 13.497L2.12463 12.197C1.52463 11.997 1.12463 11.497 1.12463 10.897C1.12463 10.297 1.42463 9.69701 2.02463 9.49701L22.9246 1.29701ZM20.3246 20.197L23.9246 2.99701L24.0246 2.79701L23.7246 2.39701H23.5246L2.12463 10.797L7.32463 12.397C7.52463 12.397 7.62463 12.597 7.72463 12.797L9.32463 18.797L12.5246 15.597C12.7246 15.397 13.1246 15.397 13.3246 15.597L19.5246 20.497L19.7246 20.597H19.8246C20.1246 20.597 20.3246 20.397 20.3246 20.197Z" fill="#40CD8B"/>
<path d="M11.1246 14.8972L11.6246 17.0972C11.5246 17.2972 11.0246 17.8972 10.7246 18.1972L9.52463 13.0972C9.52463 12.8972 9.52463 12.7972 9.72463 12.6972C9.72463 12.6972 19.8246 6.29716 19.9246 6.39716C20.1246 6.69716 11.3246 13.5972 11.3246 13.5972C11.0246 13.9972 11.0246 14.3972 11.1246 14.8972Z" fill="#40CD8B"/>
</svg>
