<svg width="20" height="21" viewBox="0 0 20 21" fill="none" xmlns="http://www.w3.org/2000/svg">
<path d="M5.82578 18.9879C5.82578 18.289 5.71465 16.5723 5.71368 16.0638C5.7133 15.8401 5.5654 15.775 5.38797 15.7165C4.30835 15.3608 3.41893 14.7383 2.78641 13.7526C2.22124 12.872 1.94295 11.8916 1.82427 10.8579C1.5941 8.85404 1.61191 6.85471 2.08112 4.88724C2.49601 3.14714 3.51116 1.94284 5.18728 1.31977C7.18217 0.578076 9.23609 0.566582 11.3109 0.650833C12.317 0.691676 13.3092 0.810409 14.2759 1.0919C15.3054 1.39163 16.3208 1.74131 17.0505 2.61864C17.5714 3.245 17.8839 3.9848 18.0865 4.77308C18.547 6.56374 18.5562 8.37972 18.3963 10.212C18.3188 11.0988 18.2195 11.9745 17.9101 12.8085C17.3184 14.4037 16.1783 15.3356 14.5786 15.7515C12.7452 16.228 10.889 16.4107 9.00494 16.3382C8.74402 16.3281 8.58989 16.4643 8.43151 16.6436C7.46155 17.6004 5.89818 18.9185 5.82578 18.9879Z" fill="#D8FAEA"/>
<path fill-rule="evenodd" clip-rule="evenodd" d="M5.43155 19.8684C5.53449 19.9131 5.64341 19.9349 5.75144 19.9349C5.94694 19.9349 6.13968 19.8637 6.29025 19.7277C6.31098 19.7096 6.35969 19.6689 6.43045 19.6096L6.46542 19.5803C6.92428 19.1961 8.14338 18.175 8.95876 17.3934C8.97202 17.3806 8.98484 17.3675 8.99722 17.3539C9.01092 17.3387 9.02236 17.3266 9.03181 17.3168C9.28622 17.3255 9.5419 17.3299 9.7931 17.3299C11.5233 17.3299 13.2259 17.1214 14.8539 16.7101C16.7958 16.2196 18.1224 15.0751 18.7966 13.3086C19.1514 12.3787 19.2599 11.4248 19.3406 10.5273C19.5407 8.29941 19.4332 6.50272 19.002 4.87298C18.739 3.87894 18.3399 3.07877 17.7821 2.42686C16.896 1.39127 15.7084 0.989504 14.5679 0.666745C13.6172 0.397669 12.5992 0.249587 11.3642 0.200869C10.749 0.176594 10.2502 0.165283 9.79448 0.165283C7.78492 0.165283 6.25356 0.394856 4.82907 0.909504C2.89019 1.61003 1.65656 2.9863 1.16245 4.99993C0.70364 6.86978 0.612465 8.89406 0.883559 11.1885C1.03226 12.4463 1.39398 13.4961 1.98943 14.398C2.66131 15.4157 3.6207 16.1516 4.8435 16.5882C4.85272 16.8372 4.86853 17.1557 4.88588 17.5049C4.91555 18.1012 4.94909 18.7772 4.94909 19.1336C4.94909 19.4526 5.13857 19.7412 5.43155 19.8684ZM5.37502 2.41637C6.61644 1.96782 7.97937 1.76782 9.79426 1.76782C10.2284 1.76782 10.7071 1.77869 11.3005 1.80214C12.4055 1.84578 13.3046 1.97488 14.13 2.20854C15.0716 2.47497 15.9661 2.77174 16.5616 3.46774C16.9593 3.93257 17.2499 4.52611 17.4501 5.28225C17.8372 6.74603 17.9273 8.31949 17.7418 10.384C17.6682 11.2025 17.5788 11.9984 17.2965 12.7379C16.806 14.023 15.9047 14.7915 14.46 15.1565C12.9606 15.5353 11.3904 15.7274 9.79288 15.7274C9.53681 15.7274 9.27544 15.7224 9.01623 15.7127C8.36828 15.6891 7.99595 16.0718 7.82752 16.256C7.43464 16.6315 6.94036 17.0682 6.4904 17.4565L6.48879 17.4255L6.48838 17.4172C6.46367 16.919 6.44039 16.4496 6.44 16.2409C6.43939 15.8664 6.28467 15.3707 5.55124 15.1358C4.56792 14.821 3.84118 14.2911 3.32932 13.5159C2.87466 12.8274 2.59605 12.0045 2.47736 11.0006C2.22914 8.89979 2.30882 7.06167 2.72116 5.38117C3.08459 3.90018 3.95263 2.9303 5.37502 2.41637Z" fill="#40CD8B"/>
<path d="M14.2624 12.1396C14.1927 12.7611 13.8511 13.1081 13.5102 13.4395C13.1251 13.8139 12.6669 14.0362 12.1188 13.8172C11.6978 13.6489 11.2849 13.4571 10.8797 13.2535C9.60703 12.6147 8.49043 11.7609 7.5274 10.7184C6.3866 9.48327 5.49447 8.09083 4.96969 6.4804C4.83248 6.05944 4.90437 5.6841 5.23658 5.39549C5.54199 5.13011 5.8663 4.87996 6.20906 4.66578C6.45634 4.5113 6.756 4.52658 6.98123 4.72713C7.60846 5.28548 8.12153 5.93817 8.45418 6.71296C8.56691 6.97563 8.54204 7.2526 8.28443 7.45607C8.15833 7.5556 8.03953 7.66424 7.9157 7.76664C7.57481 8.04846 7.52176 8.24438 7.6582 8.6612C7.96836 9.60895 8.63488 10.2651 9.43937 10.7939C9.71086 10.9724 10.028 11.088 10.335 11.2041C10.5965 11.303 10.8146 11.1942 10.9827 10.9809C11.0704 10.8697 11.1555 10.7564 11.2455 10.6472C11.502 10.3358 11.9527 10.2328 12.2879 10.4567C12.8766 10.8498 13.4555 11.2599 14.0142 11.6938C14.155 11.8031 14.2042 12.0296 14.2624 12.1396Z" fill="#40CD8B"/>
<path d="M15.1059 9.46649C14.8842 9.46649 14.7046 9.28707 14.7046 9.06583C14.7046 6.29027 12.443 4.03228 9.66337 4.03228C9.44178 4.03228 9.26208 3.85286 9.26208 3.63162C9.26208 3.41038 9.44178 3.23096 9.66337 3.23096C12.8856 3.23096 15.5071 5.8485 15.5071 9.06577C15.5071 9.28707 15.3276 9.46649 15.1059 9.46649Z" fill="#40CD8B"/>
<path d="M13.6215 9.46662C13.3999 9.46662 13.2203 9.2872 13.2203 9.06596C13.2203 7.10773 11.6246 5.51446 9.66337 5.51446C9.44178 5.51446 9.26208 5.33504 9.26208 5.1138C9.26208 4.89256 9.44178 4.71313 9.66337 4.71313C12.0671 4.71313 14.0228 6.66574 14.0228 9.06591C14.0228 9.2872 13.8432 9.46662 13.6215 9.46662Z" fill="#40CD8B"/>
<path d="M12.1373 9.46652C11.9157 9.46652 11.736 9.2871 11.736 9.06585C11.736 7.92478 10.8062 6.99639 9.66337 6.99639C9.44178 6.99639 9.26208 6.81697 9.26208 6.59573C9.26208 6.37449 9.44178 6.19507 9.66337 6.19507C11.2487 6.19507 12.5385 7.4829 12.5385 9.0658C12.5385 9.2871 12.359 9.46652 12.1373 9.46652Z" fill="#40CD8B"/>
</svg>
