<svg width="24" height="26" viewBox="0 0 24 26" fill="none" xmlns="http://www.w3.org/2000/svg">
<path d="M7.29999 23.7001C7.29999 22.8001 7.19999 20.7001 7.19999 20.1001C7.19999 19.8001 6.99999 19.7001 6.79999 19.7001C5.49999 19.3001 4.29999 18.5001 3.59999 17.2001C2.89999 16.1001 2.49999 14.9001 2.39999 13.6001C1.99999 11.0001 1.99999 8.6001 2.59999 6.1001C3.09999 3.9001 4.39999 2.4001 6.49999 1.6001C8.99999 0.700098 11.6 0.700098 14.1 0.800098C15.4 0.900098 16.6 1.0001 17.8 1.4001C19.1 1.8001 20.4 2.2001 21.3 3.3001C21.9 4.0001 22.3 5.0001 22.6 6.0001C23.2 8.2001 23.2 10.5001 23 12.8001C22.9 13.9001 22.8 15.0001 22.4 16.0001C21.7 18.0001 20.2 19.2001 18.2 19.7001C15.9 20.3001 13.6 20.5001 11.2 20.4001C10.9 20.4001 10.7 20.6001 10.5 20.8001C9.29999 22.0001 7.39999 23.6001 7.29999 23.7001Z" fill="#D8FAEA"/>
<path fill-rule="evenodd" clip-rule="evenodd" d="M21.9628 3.24834C22.5628 4.04834 23.0628 4.94834 23.3628 6.14834C23.8628 8.14834 23.9628 10.3483 23.7628 13.1483C23.6628 14.2483 23.4628 15.4483 23.0628 16.5483C22.2628 18.6483 20.7628 19.9483 18.4628 20.5483C16.1628 21.0483 13.7628 21.3483 11.2628 21.2483H11.0628L10.9628 21.3483L10.8628 21.4483C10.023 22.2881 8.8306 23.2689 8.11472 23.8578C7.97814 23.9701 7.8589 24.0682 7.76277 24.1483L7.66277 24.2483C7.56277 24.3483 7.26277 24.4483 7.06277 24.3483C6.76277 24.3483 6.66277 24.0483 6.66277 23.8483C6.66277 23.6827 6.64561 23.4483 6.62551 23.1738C6.59708 22.7856 6.56277 22.317 6.56277 21.8483C6.46277 21.4483 6.46277 21.0483 6.46277 20.7483V20.4483L6.16277 20.3483C4.66277 19.8483 3.56277 18.9483 2.76277 17.7483C2.06277 16.7483 1.66277 15.4483 1.46277 13.9483C1.16277 11.1483 1.26277 8.64834 1.86277 6.34834C2.46277 3.94834 3.86277 2.34834 6.16277 1.54834C7.86277 0.84834 9.76277 0.64834 12.2628 0.54834H14.2628C15.7628 0.64834 16.9628 0.84834 18.1628 1.14834C19.4628 1.54834 20.9628 2.04834 21.9628 3.24834ZM22.5537 13.1393C22.5567 13.1089 22.5597 13.0786 22.5628 13.0483C22.7628 10.3483 22.6628 8.34834 22.1628 6.44834C21.8628 5.44834 21.4628 4.64834 20.9628 4.04834C20.1628 3.04834 18.9628 2.64834 17.7628 2.34834C16.7628 2.04834 15.5628 1.94834 14.1628 1.84834H12.2628C9.86277 1.84834 8.16277 2.04834 6.56277 2.54834C4.56277 3.24834 3.46277 4.54834 2.96277 6.54834C2.46277 8.74834 2.36277 11.0483 2.66277 13.7483C2.76277 15.0483 3.16277 16.1483 3.76277 17.0483C4.46277 18.1483 5.46277 18.8483 6.76277 19.2483C7.26277 19.4483 7.56277 19.7483 7.56277 20.2483C7.56277 20.318 7.5749 20.4362 7.59071 20.5903C7.6203 20.8785 7.66277 21.2922 7.66277 21.7483L7.76277 22.5483L8.36277 22.0483C8.96277 21.5483 9.56277 21.0483 10.0628 20.5483C10.1092 20.5251 10.1663 20.4858 10.2342 20.4391C10.4591 20.2843 10.8019 20.0483 11.2628 20.0483C13.6628 20.1483 15.9628 19.9483 18.1628 19.3483C20.0628 18.8483 21.2628 17.7483 21.9628 16.0483C22.3507 15.1755 22.4564 14.1146 22.5537 13.1393Z" fill="#40CD8B"/>
<path d="M17.7628 15.1485C17.6628 15.9485 17.2628 16.3485 16.8628 16.7485C16.3628 17.2485 15.7628 17.4485 15.1628 17.2485C14.6628 17.0485 14.1628 16.8485 13.6628 16.5485C12.0628 15.7485 10.6628 14.6485 9.46277 13.3485C7.96277 11.8485 6.86277 10.0485 6.16277 8.04852C5.96277 7.54852 6.06277 7.04852 6.46277 6.64852C6.86277 6.34852 7.26277 6.04852 7.66277 5.74852C7.96277 5.54852 8.36277 5.54852 8.66277 5.84852C9.46277 6.54852 10.0628 7.34852 10.4628 8.34852C10.5628 8.64852 10.5628 9.04852 10.2628 9.24852C10.1628 9.44852 10.0628 9.54852 9.86277 9.64852C9.46277 10.0485 9.36277 10.2485 9.56277 10.7485C9.96277 11.9485 10.7628 12.7485 11.7628 13.4485C12.0628 13.6485 12.4628 13.8485 12.8628 13.9485C13.1628 14.0485 13.4628 13.9485 13.6628 13.6485C13.7628 13.5485 13.8628 13.3485 13.9628 13.2485C14.2628 12.8485 14.8628 12.7485 15.2628 13.0485C15.9628 13.5485 16.7628 14.0485 17.4628 14.5485C17.6628 14.7485 17.7628 15.0485 17.7628 15.1485Z" fill="#40CD8B"/>
<path d="M18.8628 11.8483C18.5628 11.8483 18.3628 11.6483 18.3628 11.3483C18.3628 7.84834 15.5628 5.04834 12.0628 5.04834C11.7628 5.04834 11.5628 4.84834 11.5628 4.54834C11.5628 4.24834 11.7628 4.04834 12.0628 4.04834C16.0628 4.04834 19.3628 7.34834 19.3628 11.3483C19.3628 11.5483 19.1628 11.8483 18.8628 11.8483Z" fill="#40CD8B"/>
<path d="M16.9628 11.8485C16.6628 11.8485 16.4628 11.6485 16.4628 11.3485C16.4628 8.94849 14.4628 6.94849 12.0628 6.94849C11.7628 6.94849 11.5628 6.74849 11.5628 6.44849C11.5628 6.14849 11.7628 5.94849 12.0628 5.94849C15.0628 5.94849 17.4628 8.34849 17.4628 11.3485C17.4628 11.5485 17.2628 11.8485 16.9628 11.8485Z" fill="#40CD8B"/>
<path d="M15.1628 11.8485C14.8628 11.8485 14.6628 11.6485 14.6628 11.3485C14.6628 9.94854 13.4628 8.74854 12.0628 8.74854C11.7628 8.74854 11.5628 8.54854 11.5628 8.24854C11.5628 7.94854 11.7628 7.74854 12.0628 7.74854C14.0628 7.74854 15.6628 9.34854 15.6628 11.3485C15.6628 11.5485 15.4628 11.8485 15.1628 11.8485Z" fill="#40CD8B"/>
</svg>
