<svg width="23" height="23" viewBox="0 0 23 23" fill="none" xmlns="http://www.w3.org/2000/svg">
<path d="M7.09998 20.8001C7.19998 20.8001 7.39998 20.8001 7.49998 20.9001C8.69998 21.4001 9.99998 21.6001 11.3 21.6001C16.9 21.6001 21.5 17.0001 21.5 11.4001C21.5 5.8001 17 1.1001 11.4 1.1001C5.79998 1.1001 1.09998 5.7001 1.09998 11.4001C1.09998 13.6001 1.79998 15.7001 3.09998 17.4001C3.29998 17.6001 3.29998 17.9001 3.29998 18.2001L2.89998 21.4001L6.99998 20.8001H7.09998Z" fill="#D8FAEA"/>
<path fill-rule="evenodd" clip-rule="evenodd" d="M0.0999756 11.4001C0.0999756 5.2001 5.19998 0.100098 11.4 0.100098C17.6 0.100098 22.6 5.2001 22.6 11.4001C22.6 17.6001 17.6 22.6001 11.4 22.6001C9.99998 22.6001 8.69998 22.4001 7.39998 21.9001H7.29998L2.29998 22.6001C2.09998 22.6001 1.89998 22.5001 1.79998 22.4001C1.59998 22.3001 1.59998 22.1001 1.59998 21.9001L2.09998 17.8001L1.99998 17.7001C0.799976 15.8001 0.0999756 13.6001 0.0999756 11.4001ZM7.59998 20.7001C8.79998 21.2001 9.99998 21.4001 11.3 21.4001C16.9 21.4001 21.4 16.9001 21.4 11.4001C21.4 5.9001 16.9 1.4001 11.4 1.4001C5.89998 1.4001 1.39998 5.9001 1.39998 11.4001C1.39998 13.5001 2.09998 15.6001 3.29998 17.3001C3.39998 17.4001 3.39998 17.6001 3.39998 17.7001L2.89998 21.3001L7.29998 20.7001C7.36664 20.6334 7.43331 20.6557 7.49998 20.6779C7.53331 20.689 7.56664 20.7001 7.59998 20.7001Z" fill="#40CD8B"/>
<path fill-rule="evenodd" clip-rule="evenodd" d="M15.9 12.6L16.9 13.6C17.2 13.9 17.4 14.4 17.3 14.9C17.3 15.5 17.1 15.9 16.7 16.3L16.4 16.6C16.2 16.8 15.8 17 15.5 17.1C15.2 17.2 14.9 17.3 14.6 17.3C14.5 17.4 14.3 17.4 13.9 17.4C12.7 17.4 10.7 16.9 8.2 14.4C5.7 12 5 10.4 5.3 8.00005C5.35 7.85005 5.375 7.70005 5.4 7.55005C5.425 7.40005 5.45 7.25005 5.5 7.10005C5.54175 7.01656 5.57913 6.93744 5.61489 6.86175C5.75046 6.57482 5.86262 6.33744 6.1 6.10005L6.4 5.90005C6.8 5.50005 7.3 5.30005 7.8 5.30005C8.3 5.30005 8.8 5.50005 9.1 5.70005L10.1 6.70005C10.5 7.10005 10.7 7.60005 10.7 8.10005C10.7 8.60005 10.5 9.00005 10.1 9.40005L9.9 9.60005L9.7 9.80005L9.9 10.1C10.1 10.5 10.4 11 11 11.6C11.6 12.2 12.1 12.6 12.5 12.8L12.8 13L13.2 12.6C13.9 11.9 15.2 11.9 15.9 12.6ZM15.8 15.6L16 15.4C16.0186 15.3814 16.0372 15.3594 16.0571 15.3357C16.1442 15.2325 16.2558 15.1 16.5 15.1C16.5 14.9 16.4 14.7 16.3 14.6L15.3 13.6C15 13.4 14.6 13.3 14.3 13.6L13.6 14.3C13.4 14.5 13.1 14.6 12.8 14.4L12.5 14.3C11.9 14 11.1 13.5 10.3 12.7C9.52857 11.9286 9.12449 11.2307 8.83586 10.7321C8.78776 10.649 8.74286 10.5715 8.7 10.5L8.5 10.2C8.3 9.90005 8.4 9.60005 8.6 9.40005L9.3 8.70005C9.3268 8.64646 9.35359 8.60005 9.37846 8.55697C9.44641 8.43928 9.5 8.34646 9.5 8.20005C9.5 8.00005 9.4 7.80005 9.3 7.70005L8.3 6.70005C8 6.40005 7.6 6.40005 7.3 6.70005L7 7.00005C6.9 7.10005 6.8 7.30005 6.8 7.50005C6.8 7.60005 6.775 7.70005 6.75 7.80005C6.725 7.90005 6.7 8.00005 6.7 8.10005C6.5 9.80005 6.8 11 9.3 13.5C11.6 15.9 13.3 16.2 14.1 16.2C14.2172 16.2 14.3343 16.1657 14.4314 16.1373C14.5 16.1172 14.5586 16.1 14.6 16.1C14.7 16.1 15 16 15.2 15.9C15.3333 15.9 15.4667 15.8112 15.6 15.7223C15.6667 15.6778 15.7333 15.6334 15.8 15.6Z" fill="#40CD8B"/>
</svg>
