<svg width="20" height="20" viewBox="0 0 20 20" fill="none" xmlns="http://www.w3.org/2000/svg">
<path fill-rule="evenodd" clip-rule="evenodd" d="M6.89013 17.4287C6.99697 17.4287 7.1033 17.4491 7.20305 17.4894C8.14136 17.8672 9.13418 18.0588 10.1538 18.0588C14.5125 18.0588 18.0588 14.5125 18.0588 10.1538C18.0588 5.79501 14.5125 2.24878 10.1538 2.24878C5.79501 2.24878 2.24878 5.79501 2.24878 10.1538C2.24878 11.8352 2.76991 13.4407 3.75593 14.7968C3.88188 14.97 3.93674 15.1848 3.90916 15.3971L3.58551 17.8962L6.77059 17.4373C6.81034 17.4315 6.85032 17.4287 6.89013 17.4287Z" fill="#D8FAEA"/>
<path fill-rule="evenodd" clip-rule="evenodd" d="M6.79196 19.1274C7.86636 19.5305 8.99621 19.7347 10.1539 19.7347C15.4367 19.7347 19.7348 15.4369 19.7348 10.154C19.7348 4.87109 15.4369 0.573242 10.154 0.573242C4.87115 0.573242 0.573303 4.87109 0.573303 10.154C0.573303 12.078 1.13667 13.9204 2.20588 15.5042L1.78225 18.7753C1.74855 19.0352 1.83832 19.2957 2.0249 19.4796C2.21142 19.6635 2.4734 19.7495 2.73255 19.7123L6.79196 19.1274ZM7.20307 17.4895C7.10332 17.4493 6.997 17.4289 6.89015 17.4289C6.85034 17.4289 6.81036 17.4316 6.77061 17.4375L3.58553 17.8963L3.90919 15.3973C3.93676 15.185 3.8819 14.9701 3.75596 14.7969C2.76994 13.4408 2.2488 11.8353 2.2488 10.1539C2.2488 5.79515 5.79503 2.24892 10.1538 2.24892C14.5126 2.24892 18.0588 5.79515 18.0588 10.1539C18.0588 14.5127 14.5126 18.0589 10.1538 18.0589C9.13421 18.0589 8.14138 17.8674 7.20307 17.4895Z" fill="#40CD8B"/>
<path fill-rule="evenodd" clip-rule="evenodd" d="M7.37697 12.9171C9.50426 15.0436 11.24 15.4901 12.3218 15.4901C12.6464 15.4901 12.8679 15.4482 12.9589 15.43C13.2093 15.3974 13.478 15.3248 13.7816 15.2073C14.0796 15.0909 14.368 14.9264 14.6157 14.7318C14.6401 14.7126 14.6635 14.692 14.6855 14.6703L14.9086 14.451C15.2741 14.0917 15.4765 13.6115 15.4787 13.0991C15.4808 12.5866 15.2824 12.1047 14.9201 11.7424L14.1277 10.95C13.7674 10.5897 13.2885 10.3913 12.779 10.3913C12.2696 10.3913 11.7907 10.5898 11.4305 10.95L11.3135 11.0669C10.9508 10.8591 10.5685 10.608 10.1285 10.1681C9.70693 9.74645 9.45095 9.36638 9.24955 9.02109L9.30418 8.96974C9.31053 8.96392 9.31676 8.95786 9.32288 8.95174L9.3774 8.89722C9.73763 8.53693 9.93603 8.05803 9.93603 7.54849C9.93603 7.03901 9.73757 6.56005 9.3774 6.19988L8.55378 5.37626C8.19355 5.01603 7.71459 4.81763 7.20516 4.81763C6.69003 4.81763 6.20726 5.01978 5.84588 5.38693L5.62636 5.60997C5.60397 5.63265 5.58303 5.65653 5.56353 5.68151C5.36813 5.93126 5.2089 6.21153 5.09028 6.51442L5.08699 6.52295C4.97882 6.80818 4.91138 7.08003 4.8808 7.35395C4.63445 9.39972 5.26468 10.8039 7.37697 12.9171ZM6.54591 7.54209C6.56051 7.41032 6.59524 7.27261 6.65224 7.1214C6.70509 6.98732 6.7757 6.85901 6.85763 6.74743L7.03988 6.56236C7.09618 6.50524 7.16068 6.49324 7.20493 6.49324C7.24866 6.49324 7.31259 6.50495 7.36866 6.56103L8.19228 7.38465C8.2483 7.44072 8.26013 7.50465 8.26013 7.54838C8.26013 7.59211 8.24836 7.65603 8.19228 7.71211L7.6292 8.24409C7.35003 8.50642 7.28374 8.92353 7.46916 9.25884L7.47753 9.2762C7.49501 9.31295 7.51313 9.34982 7.53834 9.39459L7.59597 9.49918L7.596 9.49923C7.85705 9.97398 8.21457 10.6242 8.94326 11.3531C9.66649 12.0762 10.3137 12.432 10.7864 12.6918L10.8981 12.7533C10.9361 12.7746 10.9737 12.7946 11.0104 12.8138L11.0603 12.8404C11.3865 13.018 11.7907 12.9596 12.0533 12.697L12.6153 12.1351C12.6713 12.0791 12.7353 12.0673 12.779 12.0673C12.8227 12.0673 12.8868 12.0791 12.9427 12.1351L13.735 12.9275C13.7914 12.9839 13.803 13.0482 13.8029 13.0921C13.8027 13.1361 13.7905 13.2004 13.7336 13.2563L13.5476 13.4392C13.4355 13.5221 13.3036 13.595 13.1741 13.6456C12.9967 13.7143 12.8482 13.756 12.7377 13.769C12.7204 13.7708 12.6877 13.7754 12.6404 13.7848L12.6397 13.7849C12.595 13.7938 12.4914 13.8143 12.3219 13.8143C11.6955 13.8143 10.3741 13.5437 8.56203 11.7322C6.63643 9.80582 6.38357 8.8854 6.54493 7.55086L6.54591 7.54209Z" fill="#40CD8B"/>
</svg>
